<svg width="1602" height="715" viewBox="0 0 1602 715" fill="none" xmlns="http://www.w3.org/2000/svg">
<rect x="412.358" y="1.28223" width="375.142" height="712.218" fill="#D9D9D9" stroke="black"/>
<rect x="431.333" y="634.138" width="336.076" height="59.272" rx="26.5" fill="#AAAAAA" stroke="black"/>
<rect x="695.859" y="549.311" width="46.9943" height="46.9943" rx="9.5" fill="#AAAAAA" stroke="black"/>
<rect x="439.146" y="245.718" width="150.796" height="145.215" rx="15.5" fill="#AAAAAA" stroke="black"/>
<rect x="440.262" y="405.327" width="150.796" height="145.215" rx="15.5" fill="#AAAAAA" stroke="black"/>
<rect x="605.452" y="244.602" width="150.796" height="145.215" rx="15.5" fill="#AAAAAA" stroke="black"/>
<rect x="412.358" y="34.7666" width="375.142" height="110.615" fill="#AAAAAA" stroke="black"/>
<rect x="439.146" y="188.795" width="102.802" height="24.6714" fill="#AAAAAA" stroke="black"/>
<rect x="0.5" y="1.28223" width="375.142" height="712.218" fill="#D9D9D9" stroke="black"/>
<rect x="19.4746" y="634.138" width="336.076" height="59.272" rx="26.5" fill="#AAAAAA" stroke="black"/>
<rect x="27.1455" y="327.718" width="150.796" height="145.215" rx="15.5" fill="#AAAAAA" stroke="black"/>
<rect x="193.452" y="326.602" width="150.796" height="145.215" rx="15.5" fill="#AAAAAA" stroke="black"/>
<rect x="27.5" y="210.5" width="317" height="92" rx="29.5" fill="#AAAAAA" stroke="black"/>
<rect x="27.5" y="501.5" width="317" height="92" rx="29.5" fill="#AAAAAA" stroke="black"/>
<rect x="36.5" y="144.5" width="29" height="29" rx="7.5" fill="#AAAAAA" stroke="black"/>
<rect x="168.5" y="144.5" width="29" height="29" rx="7.5" fill="#AAAAAA" stroke="black"/>
<rect x="69.5" y="144.5" width="29" height="29" rx="7.5" fill="#AAAAAA" stroke="black"/>
<rect x="201.5" y="144.5" width="29" height="29" rx="7.5" fill="#AAAAAA" stroke="black"/>
<rect x="102.5" y="144.5" width="29" height="29" rx="7.5" fill="#AAAAAA" stroke="black"/>
<rect x="234.5" y="144.5" width="29" height="29" rx="7.5" fill="#AAAAAA" stroke="black"/>
<rect x="135.5" y="144.5" width="29" height="29" rx="7.5" fill="#AAAAAA" stroke="black"/>
<rect x="267.5" y="144.5" width="29" height="29" rx="7.5" fill="#AAAAAA" stroke="black"/>
<rect x="300.5" y="144.5" width="29" height="29" rx="7.5" fill="#AAAAAA" stroke="black"/>
<circle cx="314.754" cy="83.377" r="16.2422" fill="#AAAAAA" stroke="black"/>
<rect x="37.333" y="74.9473" width="102.802" height="24.6714" fill="#AAAAAA" stroke="black"/>
<rect x="1225.5" y="0.5" width="375.142" height="712.218" fill="#D9D9D9" stroke="black"/>
<rect x="1244.47" y="633.355" width="336.076" height="59.272" rx="26.5" fill="#AAAAAA" stroke="black"/>
<rect x="1252.5" y="279.718" width="317" height="92" rx="29.5" fill="#AAAAAA" stroke="black"/>
<rect x="1252.5" y="171.5" width="317" height="29" fill="#AAAAAA" stroke="black"/>
<rect x="1252.5" y="154.5" width="78" height="10" fill="#AAAAAA" stroke="black"/>
<rect x="1252.5" y="207.5" width="142" height="10" fill="#AAAAAA" stroke="black"/>
<rect x="1252.5" y="499.5" width="142" height="10" fill="#AAAAAA" stroke="black"/>
<rect x="1252.5" y="390.718" width="317" height="92" rx="29.5" fill="#AAAAAA" stroke="black"/>
<circle cx="1539.75" cy="82.5947" r="16.2422" fill="#AAAAAA" stroke="black"/>
<rect x="1262.33" y="74.165" width="102.802" height="24.6714" fill="#AAAAAA" stroke="black"/>
<rect x="818.5" y="1.5" width="375.142" height="712.218" fill="#D9D9D9" stroke="black"/>
<rect x="855.5" y="352.5" width="294" height="37" rx="15.5" fill="#AAAAAA" stroke="black"/>
<rect x="837.475" y="634.355" width="336.076" height="59.272" rx="26.5" fill="#AAAAAA" stroke="black"/>
<circle cx="1132.75" cy="83.5947" r="16.2422" fill="#AAAAAA" stroke="black"/>
<rect x="855.333" y="75.165" width="102.802" height="24.6714" fill="#AAAAAA" stroke="black"/>
<line x1="914" y1="277.5" x2="1091" y2="277.5" stroke="#AAAAAA" stroke-width="3"/>
<line x1="868" y1="403.5" x2="1045" y2="403.5" stroke="#AAAAAA" stroke-width="3"/>
<line x1="896" y1="290.5" x2="1109" y2="290.5" stroke="#AAAAAA" stroke-width="3"/>
</svg>
