<svg width="1503" height="705" viewBox="0 0 1503 705" fill="none" xmlns="http://www.w3.org/2000/svg">
<rect y="4.57764e-05" width="1503" height="705" rx="40" fill="#404040"/>
<line y1="-0.5" x2="705.001" y2="-0.5" transform="matrix(0.0014184 -0.999999 0.999997 0.00253838 130 705)" stroke="#6F6F6F"/>
<line y1="-0.5" x2="705.001" y2="-0.5" transform="matrix(0.0014184 -0.999999 0.999997 0.00253838 285 705)" stroke="#6F6F6F"/>
<line y1="-0.5" x2="705.001" y2="-0.5" transform="matrix(0.0014184 -0.999999 0.999997 0.00253838 440 705)" stroke="#6F6F6F"/>
<line y1="-0.5" x2="705.001" y2="-0.5" transform="matrix(0.0014184 -0.999999 0.999997 0.00253838 595 705)" stroke="#6F6F6F"/>
<line y1="-0.5" x2="705.001" y2="-0.5" transform="matrix(0.0014184 -0.999999 0.999997 0.00253838 750 705)" stroke="#6F6F6F"/>
<line y1="-0.5" x2="705.001" y2="-0.5" transform="matrix(0.0014184 -0.999999 0.999997 0.00253838 905 705)" stroke="#6F6F6F"/>
<line y1="-0.5" x2="705.001" y2="-0.5" transform="matrix(0.0014184 -0.999999 0.999997 0.00253838 1060 705)" stroke="#6F6F6F"/>
<line y1="-0.5" x2="705.001" y2="-0.5" transform="matrix(0.0014184 -0.999999 0.999997 0.00253838 1215 705)" stroke="#6F6F6F"/>
<line y1="-0.5" x2="705.001" y2="-0.5" transform="matrix(0.0014184 -0.999999 0.999997 0.00253838 1370 705)" stroke="#6F6F6F"/>
<rect x="1135" y="591" width="235" height="54" rx="27" fill="#B07429"/>
<path d="M1178.9 625V613.68H1175.22V611.34H1185.22V613.68H1181.66V625H1178.9ZM1189.32 625.22C1188.21 625.22 1187.33 625.033 1186.68 624.66C1186.04 624.287 1185.58 623.72 1185.3 622.96C1185.02 622.2 1184.88 621.247 1184.88 620.1C1184.88 618.86 1185.05 617.847 1185.4 617.06C1185.76 616.273 1186.28 615.693 1186.96 615.32C1187.64 614.933 1188.48 614.74 1189.48 614.74C1190.96 614.74 1192.07 615.113 1192.82 615.86C1193.58 616.607 1193.96 617.787 1193.96 619.4L1193.84 620.88H1187.56C1187.57 621.627 1187.73 622.187 1188.02 622.56C1188.31 622.933 1188.82 623.12 1189.54 623.12C1189.95 623.12 1190.41 623.113 1190.9 623.1C1191.39 623.073 1191.88 623.047 1192.36 623.02C1192.85 622.993 1193.27 622.967 1193.62 622.94L1193.68 624.8C1193.35 624.853 1192.93 624.913 1192.42 624.98C1191.91 625.047 1191.39 625.1 1190.84 625.14C1190.31 625.193 1189.8 625.22 1189.32 625.22ZM1187.56 619.18H1191.3C1191.3 618.273 1191.15 617.64 1190.86 617.28C1190.58 616.92 1190.12 616.74 1189.48 616.74C1189.05 616.74 1188.7 616.82 1188.42 616.98C1188.14 617.14 1187.93 617.4 1187.78 617.76C1187.63 618.12 1187.56 618.593 1187.56 619.18ZM1199.35 625.22C1198.91 625.22 1198.44 625.193 1197.93 625.14C1197.44 625.1 1196.97 625.047 1196.53 624.98C1196.1 624.913 1195.74 624.847 1195.43 624.78L1195.51 622.8C1195.86 622.84 1196.24 622.887 1196.67 622.94C1197.11 622.993 1197.54 623.04 1197.95 623.08C1198.38 623.107 1198.72 623.12 1198.99 623.12C1199.39 623.12 1199.72 623.087 1199.97 623.02C1200.24 622.953 1200.44 622.847 1200.57 622.7C1200.7 622.54 1200.77 622.313 1200.77 622.02C1200.77 621.793 1200.71 621.62 1200.59 621.5C1200.48 621.38 1200.27 621.28 1199.95 621.2C1199.64 621.107 1199.19 621.013 1198.59 620.92C1197.84 620.813 1197.22 620.66 1196.73 620.46C1196.25 620.26 1195.9 619.967 1195.67 619.58C1195.44 619.18 1195.33 618.64 1195.33 617.96C1195.33 617.133 1195.51 616.487 1195.87 616.02C1196.23 615.553 1196.71 615.227 1197.31 615.04C1197.91 614.84 1198.56 614.74 1199.27 614.74C1199.74 614.74 1200.22 614.767 1200.71 614.82C1201.2 614.86 1201.67 614.913 1202.11 614.98C1202.55 615.047 1202.92 615.113 1203.21 615.18L1203.13 617.2C1202.8 617.147 1202.41 617.1 1201.97 617.06C1201.53 617.007 1201.09 616.967 1200.65 616.94C1200.22 616.913 1199.86 616.9 1199.57 616.9C1199.26 616.9 1198.99 616.933 1198.75 617C1198.51 617.053 1198.32 617.147 1198.19 617.28C1198.07 617.413 1198.01 617.613 1198.01 617.88C1198.01 618.067 1198.06 618.22 1198.17 618.34C1198.28 618.46 1198.48 618.567 1198.77 618.66C1199.08 618.74 1199.52 618.82 1200.09 618.9C1200.92 619.02 1201.58 619.187 1202.07 619.4C1202.56 619.613 1202.92 619.92 1203.13 620.32C1203.36 620.72 1203.47 621.26 1203.47 621.94C1203.47 622.74 1203.31 623.38 1202.99 623.86C1202.67 624.34 1202.2 624.687 1201.59 624.9C1200.98 625.113 1200.23 625.22 1199.35 625.22ZM1208.74 625.24C1208.01 625.24 1207.41 625.133 1206.96 624.92C1206.51 624.707 1206.18 624.34 1205.98 623.82C1205.79 623.287 1205.7 622.547 1205.7 621.6V617.18H1204.52V614.96H1205.7V612.3H1208.36V614.96H1210.92V617.18H1208.36V620.9C1208.36 621.42 1208.38 621.827 1208.42 622.12C1208.47 622.413 1208.58 622.62 1208.74 622.74C1208.9 622.86 1209.15 622.92 1209.48 622.92C1209.57 622.92 1209.71 622.913 1209.9 622.9C1210.09 622.887 1210.27 622.873 1210.46 622.86C1210.65 622.847 1210.8 622.833 1210.92 622.82L1211 624.96C1210.8 625 1210.55 625.04 1210.26 625.08C1209.98 625.12 1209.7 625.153 1209.42 625.18C1209.15 625.22 1208.93 625.24 1208.74 625.24ZM1212.41 625V614.96H1215.07V625H1212.41ZM1212.41 613.36V611.08H1215.09V613.36H1212.41ZM1217.29 625V614.96H1219.95V615.6C1220.16 615.467 1220.42 615.34 1220.73 615.22C1221.04 615.087 1221.36 614.973 1221.69 614.88C1222.04 614.787 1222.37 614.74 1222.69 614.74C1223.38 614.74 1223.96 614.833 1224.41 615.02C1224.88 615.193 1225.24 615.48 1225.51 615.88C1225.78 616.28 1225.97 616.807 1226.09 617.46C1226.21 618.1 1226.27 618.88 1226.27 619.8V625H1223.59V619.94C1223.59 619.247 1223.55 618.693 1223.47 618.28C1223.39 617.853 1223.24 617.547 1223.01 617.36C1222.78 617.173 1222.45 617.08 1222.01 617.08C1221.77 617.08 1221.52 617.107 1221.25 617.16C1221 617.2 1220.75 617.26 1220.51 617.34C1220.28 617.42 1220.1 617.5 1219.95 617.58V625H1217.29ZM1232.77 629.58C1231.7 629.58 1230.81 629.5 1230.09 629.34C1229.38 629.18 1228.85 628.887 1228.49 628.46C1228.13 628.047 1227.95 627.447 1227.95 626.66C1227.95 626.313 1227.99 626 1228.09 625.72C1228.19 625.453 1228.35 625.2 1228.57 624.96C1228.79 624.72 1229.07 624.473 1229.41 624.22C1229.22 624.087 1229.07 623.893 1228.95 623.64C1228.84 623.373 1228.79 623.087 1228.79 622.78C1228.79 622.673 1228.83 622.533 1228.93 622.36C1229.02 622.173 1229.13 621.98 1229.27 621.78C1229.4 621.58 1229.53 621.4 1229.65 621.24C1229.38 621.12 1229.13 620.947 1228.89 620.72C1228.65 620.48 1228.45 620.16 1228.29 619.76C1228.14 619.36 1228.07 618.847 1228.07 618.22C1228.07 617.367 1228.23 616.687 1228.55 616.18C1228.88 615.673 1229.36 615.307 1229.99 615.08C1230.61 614.853 1231.37 614.74 1232.27 614.74C1232.61 614.74 1232.99 614.767 1233.39 614.82C1233.79 614.873 1234.11 614.927 1234.35 614.98L1237.61 614.92V616.72L1236.09 616.7C1236.21 616.86 1236.31 617.067 1236.41 617.32C1236.51 617.56 1236.57 617.86 1236.57 618.22C1236.57 619.14 1236.41 619.853 1236.09 620.36C1235.78 620.867 1235.31 621.22 1234.69 621.42C1234.06 621.607 1233.27 621.7 1232.31 621.7C1232.2 621.7 1232.05 621.693 1231.87 621.68C1231.68 621.653 1231.53 621.633 1231.41 621.62C1231.35 621.753 1231.3 621.907 1231.25 622.08C1231.19 622.24 1231.17 622.353 1231.17 622.42C1231.17 622.567 1231.19 622.68 1231.25 622.76C1231.31 622.84 1231.43 622.907 1231.59 622.96C1231.76 623 1232.01 623.027 1232.33 623.04C1232.66 623.053 1233.1 623.06 1233.65 623.06C1234.59 623.06 1235.35 623.147 1235.91 623.32C1236.48 623.493 1236.89 623.8 1237.13 624.24C1237.37 624.68 1237.49 625.3 1237.49 626.1C1237.49 627.287 1237.07 628.16 1236.23 628.72C1235.4 629.293 1234.25 629.58 1232.77 629.58ZM1232.63 627.6C1233.45 627.6 1234.05 627.5 1234.41 627.3C1234.78 627.113 1234.97 626.8 1234.97 626.36C1234.97 626.013 1234.9 625.76 1234.77 625.6C1234.65 625.44 1234.44 625.333 1234.15 625.28C1233.85 625.24 1233.45 625.22 1232.95 625.22C1232.81 625.22 1232.65 625.213 1232.47 625.2C1232.28 625.2 1232.09 625.193 1231.89 625.18C1231.7 625.18 1231.53 625.173 1231.37 625.16C1231.22 625.147 1231.11 625.14 1231.05 625.14C1230.86 625.273 1230.71 625.4 1230.59 625.52C1230.48 625.64 1230.4 625.76 1230.35 625.88C1230.31 626.013 1230.29 626.173 1230.29 626.36C1230.29 626.667 1230.36 626.907 1230.51 627.08C1230.65 627.267 1230.89 627.4 1231.23 627.48C1231.57 627.56 1232.04 627.6 1232.63 627.6ZM1232.29 619.82C1232.9 619.82 1233.33 619.7 1233.59 619.46C1233.85 619.207 1233.99 618.793 1233.99 618.22C1233.99 617.647 1233.85 617.233 1233.59 616.98C1233.33 616.727 1232.9 616.6 1232.29 616.6C1231.7 616.6 1231.27 616.727 1231.01 616.98C1230.75 617.233 1230.63 617.647 1230.63 618.22C1230.63 618.793 1230.75 619.207 1231.01 619.46C1231.27 619.7 1231.7 619.82 1232.29 619.82ZM1248.03 625.22C1246.76 625.22 1245.75 625.067 1244.99 624.76C1244.23 624.453 1243.67 623.993 1243.33 623.38C1242.99 622.767 1242.83 621.987 1242.83 621.04C1242.83 620.267 1242.93 619.633 1243.13 619.14C1243.34 618.633 1243.65 618.227 1244.05 617.92C1244.46 617.6 1244.97 617.333 1245.57 617.12C1245.3 616.787 1245.1 616.487 1244.97 616.22C1244.83 615.94 1244.75 615.653 1244.71 615.36C1244.67 615.053 1244.65 614.707 1244.65 614.32C1244.65 613.667 1244.79 613.1 1245.09 612.62C1245.38 612.14 1245.83 611.767 1246.43 611.5C1247.04 611.233 1247.81 611.1 1248.73 611.1C1249.57 611.1 1250.29 611.22 1250.89 611.46C1251.5 611.687 1251.97 612.04 1252.29 612.52C1252.62 613 1252.79 613.62 1252.79 614.38C1252.79 614.847 1252.73 615.253 1252.63 615.6C1252.53 615.947 1252.37 616.253 1252.15 616.52C1251.92 616.787 1251.61 617.033 1251.23 617.26C1250.84 617.487 1250.36 617.713 1249.79 617.94L1252.07 620.16C1252.13 619.987 1252.19 619.767 1252.25 619.5C1252.31 619.22 1252.37 618.94 1252.43 618.66C1252.48 618.367 1252.52 618.107 1252.55 617.88L1254.87 617.94C1254.8 618.38 1254.71 618.833 1254.61 619.3C1254.5 619.753 1254.38 620.187 1254.25 620.6C1254.13 621.013 1253.99 621.38 1253.85 621.7L1255.93 623.62L1255.01 625.22L1252.49 623.42C1251.99 624.007 1251.37 624.453 1250.63 624.76C1249.88 625.067 1249.01 625.22 1248.03 625.22ZM1248.11 622.98C1248.61 622.98 1249.07 622.887 1249.47 622.7C1249.87 622.513 1250.19 622.233 1250.45 621.86L1247.03 618.6C1246.68 618.72 1246.39 618.873 1246.17 619.06C1245.95 619.247 1245.79 619.467 1245.69 619.72C1245.58 619.973 1245.53 620.293 1245.53 620.68C1245.53 621.427 1245.73 622 1246.13 622.4C1246.54 622.787 1247.2 622.98 1248.11 622.98ZM1248.37 616.62C1248.77 616.433 1249.09 616.24 1249.35 616.04C1249.61 615.84 1249.81 615.613 1249.93 615.36C1250.06 615.107 1250.13 614.813 1250.13 614.48C1250.13 613.973 1250.01 613.607 1249.79 613.38C1249.56 613.14 1249.2 613.02 1248.71 613.02C1248.24 613.02 1247.88 613.14 1247.63 613.38C1247.39 613.62 1247.27 613.993 1247.27 614.5C1247.27 614.687 1247.28 614.86 1247.31 615.02C1247.33 615.18 1247.38 615.34 1247.45 615.5C1247.53 615.647 1247.64 615.813 1247.79 616C1247.95 616.173 1248.14 616.38 1248.37 616.62ZM1261.77 625V611.34H1267.11C1268.2 611.34 1269.11 611.48 1269.85 611.76C1270.59 612.04 1271.15 612.507 1271.51 613.16C1271.88 613.813 1272.07 614.7 1272.07 615.82C1272.07 616.807 1271.89 617.64 1271.53 618.32C1271.18 618.987 1270.65 619.48 1269.93 619.8L1272.07 625H1269.17L1267.37 620.42H1264.53V625H1261.77ZM1264.53 618.16H1267.17C1267.67 618.16 1268.08 618.067 1268.39 617.88C1268.69 617.68 1268.91 617.407 1269.05 617.06C1269.18 616.7 1269.25 616.293 1269.25 615.84C1269.25 615.093 1269.07 614.533 1268.73 614.16C1268.38 613.787 1267.84 613.6 1267.11 613.6H1264.53V618.16ZM1277.89 625.22C1276.79 625.22 1275.91 625.033 1275.25 624.66C1274.61 624.287 1274.15 623.72 1273.87 622.96C1273.59 622.2 1273.45 621.247 1273.45 620.1C1273.45 618.86 1273.63 617.847 1273.97 617.06C1274.33 616.273 1274.85 615.693 1275.53 615.32C1276.21 614.933 1277.05 614.74 1278.05 614.74C1279.53 614.74 1280.65 615.113 1281.39 615.86C1282.15 616.607 1282.53 617.787 1282.53 619.4L1282.41 620.88H1276.13C1276.15 621.627 1276.3 622.187 1276.59 622.56C1276.89 622.933 1277.39 623.12 1278.11 623.12C1278.53 623.12 1278.98 623.113 1279.47 623.1C1279.97 623.073 1280.45 623.047 1280.93 623.02C1281.43 622.993 1281.85 622.967 1282.19 622.94L1282.25 624.8C1281.92 624.853 1281.5 624.913 1280.99 624.98C1280.49 625.047 1279.96 625.1 1279.41 625.14C1278.88 625.193 1278.37 625.22 1277.89 625.22ZM1276.13 619.18H1279.87C1279.87 618.273 1279.73 617.64 1279.43 617.28C1279.15 616.92 1278.69 616.74 1278.05 616.74C1277.63 616.74 1277.27 616.82 1276.99 616.98C1276.71 617.14 1276.5 617.4 1276.35 617.76C1276.21 618.12 1276.13 618.593 1276.13 619.18ZM1284.38 625V610.86H1287.04V625H1284.38ZM1293.38 625.22C1292.28 625.22 1291.4 625.033 1290.74 624.66C1290.1 624.287 1289.64 623.72 1289.36 622.96C1289.08 622.2 1288.94 621.247 1288.94 620.1C1288.94 618.86 1289.12 617.847 1289.46 617.06C1289.82 616.273 1290.34 615.693 1291.02 615.32C1291.7 614.933 1292.54 614.74 1293.54 614.74C1295.02 614.74 1296.14 615.113 1296.88 615.86C1297.64 616.607 1298.02 617.787 1298.02 619.4L1297.9 620.88H1291.62C1291.64 621.627 1291.79 622.187 1292.08 622.56C1292.38 622.933 1292.88 623.12 1293.6 623.12C1294.02 623.12 1294.47 623.113 1294.96 623.1C1295.46 623.073 1295.94 623.047 1296.42 623.02C1296.92 622.993 1297.34 622.967 1297.68 622.94L1297.74 624.8C1297.41 624.853 1296.99 624.913 1296.48 624.98C1295.98 625.047 1295.45 625.1 1294.9 625.14C1294.37 625.193 1293.86 625.22 1293.38 625.22ZM1291.62 619.18H1295.36C1295.36 618.273 1295.22 617.64 1294.92 617.28C1294.64 616.92 1294.18 616.74 1293.54 616.74C1293.12 616.74 1292.76 616.82 1292.48 616.98C1292.2 617.14 1291.99 617.4 1291.84 617.76C1291.7 618.12 1291.62 618.593 1291.62 619.18ZM1302.41 625.22C1301.37 625.22 1300.58 624.96 1300.05 624.44C1299.53 623.907 1299.27 623.107 1299.27 622.04C1299.27 621.293 1299.4 620.713 1299.67 620.3C1299.94 619.873 1300.33 619.567 1300.85 619.38C1301.38 619.18 1302.03 619.06 1302.79 619.02L1305.23 618.8V618.2C1305.23 617.72 1305.11 617.387 1304.87 617.2C1304.63 617 1304.28 616.9 1303.81 616.9C1303.44 616.9 1303 616.913 1302.51 616.94C1302.03 616.967 1301.55 617 1301.07 617.04C1300.6 617.08 1300.2 617.12 1299.85 617.16L1299.77 615.28C1300.12 615.2 1300.53 615.12 1301.01 615.04C1301.5 614.947 1302.02 614.873 1302.55 614.82C1303.08 614.767 1303.58 614.74 1304.03 614.74C1304.88 614.74 1305.6 614.847 1306.17 615.06C1306.74 615.273 1307.18 615.627 1307.47 616.12C1307.76 616.6 1307.91 617.253 1307.91 618.08V622.66C1307.94 622.847 1308.04 622.993 1308.21 623.1C1308.38 623.193 1308.58 623.26 1308.81 623.3L1308.75 625.14C1308.54 625.14 1308.32 625.14 1308.11 625.14C1307.91 625.153 1307.72 625.153 1307.53 625.14C1307.34 625.14 1307.18 625.127 1307.03 625.1C1306.72 625.06 1306.46 624.98 1306.23 624.86C1306.02 624.74 1305.84 624.613 1305.71 624.48C1305.5 624.573 1305.21 624.68 1304.85 624.8C1304.49 624.92 1304.1 625.02 1303.67 625.1C1303.26 625.18 1302.84 625.22 1302.41 625.22ZM1303.05 623.24C1303.3 623.24 1303.57 623.213 1303.85 623.16C1304.13 623.107 1304.39 623.047 1304.63 622.98C1304.88 622.9 1305.08 622.827 1305.23 622.76V620.46L1303.19 620.64C1302.75 620.68 1302.43 620.813 1302.23 621.04C1302.04 621.253 1301.95 621.56 1301.95 621.96C1301.95 622.36 1302.04 622.673 1302.21 622.9C1302.4 623.127 1302.68 623.24 1303.05 623.24ZM1313.88 625.22C1313.44 625.22 1312.97 625.193 1312.46 625.14C1311.97 625.1 1311.5 625.047 1311.06 624.98C1310.63 624.913 1310.27 624.847 1309.96 624.78L1310.04 622.8C1310.39 622.84 1310.77 622.887 1311.2 622.94C1311.64 622.993 1312.07 623.04 1312.48 623.08C1312.91 623.107 1313.25 623.12 1313.52 623.12C1313.92 623.12 1314.25 623.087 1314.5 623.02C1314.77 622.953 1314.97 622.847 1315.1 622.7C1315.23 622.54 1315.3 622.313 1315.3 622.02C1315.3 621.793 1315.24 621.62 1315.12 621.5C1315.01 621.38 1314.8 621.28 1314.48 621.2C1314.17 621.107 1313.72 621.013 1313.12 620.92C1312.37 620.813 1311.75 620.66 1311.26 620.46C1310.78 620.26 1310.43 619.967 1310.2 619.58C1309.97 619.18 1309.86 618.64 1309.86 617.96C1309.86 617.133 1310.04 616.487 1310.4 616.02C1310.76 615.553 1311.24 615.227 1311.84 615.04C1312.44 614.84 1313.09 614.74 1313.8 614.74C1314.27 614.74 1314.75 614.767 1315.24 614.82C1315.73 614.86 1316.2 614.913 1316.64 614.98C1317.08 615.047 1317.45 615.113 1317.74 615.18L1317.66 617.2C1317.33 617.147 1316.94 617.1 1316.5 617.06C1316.06 617.007 1315.62 616.967 1315.18 616.94C1314.75 616.913 1314.39 616.9 1314.1 616.9C1313.79 616.9 1313.52 616.933 1313.28 617C1313.04 617.053 1312.85 617.147 1312.72 617.28C1312.6 617.413 1312.54 617.613 1312.54 617.88C1312.54 618.067 1312.59 618.22 1312.7 618.34C1312.81 618.46 1313.01 618.567 1313.3 618.66C1313.61 618.74 1314.05 618.82 1314.62 618.9C1315.45 619.02 1316.11 619.187 1316.6 619.4C1317.09 619.613 1317.45 619.92 1317.66 620.32C1317.89 620.72 1318 621.26 1318 621.94C1318 622.74 1317.84 623.38 1317.52 623.86C1317.2 624.34 1316.73 624.687 1316.12 624.9C1315.51 625.113 1314.76 625.22 1313.88 625.22ZM1323.81 625.22C1322.71 625.22 1321.83 625.033 1321.17 624.66C1320.53 624.287 1320.07 623.72 1319.79 622.96C1319.51 622.2 1319.37 621.247 1319.37 620.1C1319.37 618.86 1319.55 617.847 1319.89 617.06C1320.25 616.273 1320.77 615.693 1321.45 615.32C1322.13 614.933 1322.97 614.74 1323.97 614.74C1325.45 614.74 1326.57 615.113 1327.31 615.86C1328.07 616.607 1328.45 617.787 1328.45 619.4L1328.33 620.88H1322.05C1322.07 621.627 1322.22 622.187 1322.51 622.56C1322.81 622.933 1323.31 623.12 1324.03 623.12C1324.45 623.12 1324.9 623.113 1325.39 623.1C1325.89 623.073 1326.37 623.047 1326.85 623.02C1327.35 622.993 1327.77 622.967 1328.11 622.94L1328.17 624.8C1327.84 624.853 1327.42 624.913 1326.91 624.98C1326.41 625.047 1325.88 625.1 1325.33 625.14C1324.8 625.193 1324.29 625.22 1323.81 625.22ZM1322.05 619.18H1325.79C1325.79 618.273 1325.65 617.64 1325.35 617.28C1325.07 616.92 1324.61 616.74 1323.97 616.74C1323.55 616.74 1323.19 616.82 1322.91 616.98C1322.63 617.14 1322.42 617.4 1322.27 617.76C1322.13 618.12 1322.05 618.593 1322.05 619.18Z" fill="white"/>
<rect x="689" y="427" width="239" height="54" rx="27" fill="#666666"/>
<path d="M745.26 461V447.34H754.08V449.66H748.02V453.78H752.98V456.1H748.02V461H745.26ZM755.588 461V450.96H758.248V461H755.588ZM755.588 449.36V447.08H758.268V449.36H755.588ZM760.471 461V450.96H763.131V451.6C763.344 451.467 763.604 451.34 763.911 451.22C764.218 451.087 764.538 450.973 764.871 450.88C765.218 450.787 765.551 450.74 765.871 450.74C766.564 450.74 767.138 450.833 767.591 451.02C768.058 451.193 768.424 451.48 768.691 451.88C768.958 452.28 769.151 452.807 769.271 453.46C769.391 454.1 769.451 454.88 769.451 455.8V461H766.771V455.94C766.771 455.247 766.731 454.693 766.651 454.28C766.571 453.853 766.418 453.547 766.191 453.36C765.964 453.173 765.631 453.08 765.191 453.08C764.951 453.08 764.698 453.107 764.431 453.16C764.178 453.2 763.931 453.26 763.691 453.34C763.464 453.42 763.278 453.5 763.131 453.58V461H760.471ZM774.146 461.22C773.106 461.22 772.319 460.96 771.786 460.44C771.266 459.907 771.006 459.107 771.006 458.04C771.006 457.293 771.139 456.713 771.406 456.3C771.672 455.873 772.066 455.567 772.586 455.38C773.119 455.18 773.766 455.06 774.526 455.02L776.966 454.8V454.2C776.966 453.72 776.846 453.387 776.606 453.2C776.366 453 776.012 452.9 775.546 452.9C775.172 452.9 774.739 452.913 774.246 452.94C773.766 452.967 773.286 453 772.806 453.04C772.339 453.08 771.932 453.12 771.586 453.16L771.506 451.28C771.852 451.2 772.266 451.12 772.746 451.04C773.239 450.947 773.752 450.873 774.286 450.82C774.819 450.767 775.312 450.74 775.766 450.74C776.619 450.74 777.332 450.847 777.906 451.06C778.479 451.273 778.912 451.627 779.206 452.12C779.499 452.6 779.646 453.253 779.646 454.08V458.66C779.672 458.847 779.772 458.993 779.946 459.1C780.119 459.193 780.319 459.26 780.546 459.3L780.486 461.14C780.272 461.14 780.059 461.14 779.846 461.14C779.646 461.153 779.452 461.153 779.266 461.14C779.079 461.14 778.912 461.127 778.766 461.1C778.459 461.06 778.192 460.98 777.966 460.86C777.752 460.74 777.579 460.613 777.446 460.48C777.232 460.573 776.946 460.68 776.586 460.8C776.226 460.92 775.832 461.02 775.406 461.1C774.992 461.18 774.572 461.22 774.146 461.22ZM774.786 459.24C775.039 459.24 775.306 459.213 775.586 459.16C775.866 459.107 776.126 459.047 776.366 458.98C776.619 458.9 776.819 458.827 776.966 458.76V456.46L774.926 456.64C774.486 456.68 774.166 456.813 773.966 457.04C773.779 457.253 773.686 457.56 773.686 457.96C773.686 458.36 773.772 458.673 773.946 458.9C774.132 459.127 774.412 459.24 774.786 459.24ZM782.075 461V446.86H784.735V461H782.075ZM796.67 461.22C795.55 461.22 794.596 461.073 793.81 460.78C793.036 460.487 792.45 460 792.05 459.32C791.65 458.627 791.45 457.707 791.45 456.56V447.34H794.21V456.66C794.21 457.447 794.416 458.013 794.83 458.36C795.256 458.707 795.87 458.88 796.67 458.88C797.51 458.88 798.143 458.707 798.57 458.36C798.996 458.013 799.21 457.447 799.21 456.66V447.34H801.97V456.52C801.97 457.667 801.763 458.587 801.35 459.28C800.95 459.973 800.356 460.473 799.57 460.78C798.796 461.073 797.83 461.22 796.67 461.22ZM804.381 461V447.34H807.141V461H804.381ZM814.03 461V447.34H819.25C820.316 447.34 821.21 447.493 821.93 447.8C822.663 448.093 823.25 448.527 823.69 449.1C824.13 449.673 824.443 450.367 824.63 451.18C824.83 451.993 824.93 452.92 824.93 453.96C824.93 455.013 824.836 455.967 824.65 456.82C824.476 457.673 824.176 458.413 823.75 459.04C823.323 459.667 822.75 460.153 822.03 460.5C821.31 460.833 820.41 461 819.33 461H814.03ZM816.79 458.68H819.17C819.796 458.68 820.303 458.56 820.69 458.32C821.076 458.08 821.37 457.747 821.57 457.32C821.783 456.88 821.923 456.38 821.99 455.82C822.07 455.247 822.11 454.627 822.11 453.96C822.11 453.32 822.07 452.74 821.99 452.22C821.91 451.687 821.763 451.233 821.55 450.86C821.35 450.473 821.056 450.18 820.67 449.98C820.296 449.767 819.796 449.66 819.17 449.66H816.79V458.68ZM830.898 461.22C829.792 461.22 828.912 461.033 828.258 460.66C827.618 460.287 827.158 459.72 826.878 458.96C826.598 458.2 826.458 457.247 826.458 456.1C826.458 454.86 826.632 453.847 826.978 453.06C827.338 452.273 827.858 451.693 828.538 451.32C829.218 450.933 830.058 450.74 831.058 450.74C832.538 450.74 833.652 451.113 834.398 451.86C835.158 452.607 835.538 453.787 835.538 455.4L835.418 456.88H829.138C829.152 457.627 829.305 458.187 829.598 458.56C829.892 458.933 830.398 459.12 831.118 459.12C831.532 459.12 831.985 459.113 832.478 459.1C832.972 459.073 833.458 459.047 833.938 459.02C834.432 458.993 834.852 458.967 835.198 458.94L835.258 460.8C834.925 460.853 834.505 460.913 833.998 460.98C833.492 461.047 832.965 461.1 832.418 461.14C831.885 461.193 831.378 461.22 830.898 461.22ZM829.138 455.18H832.878C832.878 454.273 832.732 453.64 832.438 453.28C832.158 452.92 831.698 452.74 831.058 452.74C830.632 452.74 830.278 452.82 829.998 452.98C829.718 453.14 829.505 453.4 829.358 453.76C829.212 454.12 829.138 454.593 829.138 455.18ZM840.927 461.22C840.487 461.22 840.014 461.193 839.507 461.14C839.014 461.1 838.547 461.047 838.107 460.98C837.68 460.913 837.314 460.847 837.007 460.78L837.087 458.8C837.434 458.84 837.82 458.887 838.247 458.94C838.687 458.993 839.114 459.04 839.527 459.08C839.954 459.107 840.3 459.12 840.567 459.12C840.967 459.12 841.294 459.087 841.547 459.02C841.814 458.953 842.014 458.847 842.147 458.7C842.28 458.54 842.347 458.313 842.347 458.02C842.347 457.793 842.287 457.62 842.167 457.5C842.06 457.38 841.847 457.28 841.527 457.2C841.22 457.107 840.767 457.013 840.167 456.92C839.42 456.813 838.8 456.66 838.307 456.46C837.827 456.26 837.474 455.967 837.247 455.58C837.02 455.18 836.907 454.64 836.907 453.96C836.907 453.133 837.087 452.487 837.447 452.02C837.807 451.553 838.287 451.227 838.887 451.04C839.487 450.84 840.14 450.74 840.847 450.74C841.314 450.74 841.794 450.767 842.287 450.82C842.78 450.86 843.247 450.913 843.687 450.98C844.127 451.047 844.494 451.113 844.787 451.18L844.707 453.2C844.374 453.147 843.987 453.1 843.547 453.06C843.107 453.007 842.667 452.967 842.227 452.94C841.8 452.913 841.44 452.9 841.147 452.9C840.84 452.9 840.567 452.933 840.327 453C840.087 453.053 839.9 453.147 839.767 453.28C839.647 453.413 839.587 453.613 839.587 453.88C839.587 454.067 839.64 454.22 839.747 454.34C839.854 454.46 840.054 454.567 840.347 454.66C840.654 454.74 841.094 454.82 841.667 454.9C842.494 455.02 843.154 455.187 843.647 455.4C844.14 455.613 844.494 455.92 844.707 456.32C844.934 456.72 845.047 457.26 845.047 457.94C845.047 458.74 844.887 459.38 844.567 459.86C844.247 460.34 843.78 460.687 843.167 460.9C842.554 461.113 841.807 461.22 840.927 461.22ZM846.799 461V450.96H849.459V461H846.799ZM846.799 449.36V447.08H849.479V449.36H846.799ZM856.102 465.58C855.035 465.58 854.142 465.5 853.422 465.34C852.715 465.18 852.182 464.887 851.822 464.46C851.462 464.047 851.282 463.447 851.282 462.66C851.282 462.313 851.329 462 851.422 461.72C851.529 461.453 851.689 461.2 851.902 460.96C852.129 460.72 852.409 460.473 852.742 460.22C852.555 460.087 852.402 459.893 852.282 459.64C852.175 459.373 852.122 459.087 852.122 458.78C852.122 458.673 852.169 458.533 852.262 458.36C852.355 458.173 852.469 457.98 852.602 457.78C852.735 457.58 852.862 457.4 852.982 457.24C852.715 457.12 852.462 456.947 852.222 456.72C851.982 456.48 851.782 456.16 851.622 455.76C851.475 455.36 851.402 454.847 851.402 454.22C851.402 453.367 851.562 452.687 851.882 452.18C852.215 451.673 852.695 451.307 853.322 451.08C853.949 450.853 854.709 450.74 855.602 450.74C855.949 450.74 856.322 450.767 856.722 450.82C857.122 450.873 857.442 450.927 857.682 450.98L860.942 450.92V452.72L859.422 452.7C859.542 452.86 859.649 453.067 859.742 453.32C859.849 453.56 859.902 453.86 859.902 454.22C859.902 455.14 859.742 455.853 859.422 456.36C859.115 456.867 858.649 457.22 858.022 457.42C857.395 457.607 856.602 457.7 855.642 457.7C855.535 457.7 855.389 457.693 855.202 457.68C855.015 457.653 854.862 457.633 854.742 457.62C854.689 457.753 854.635 457.907 854.582 458.08C854.529 458.24 854.502 458.353 854.502 458.42C854.502 458.567 854.529 458.68 854.582 458.76C854.649 458.84 854.762 458.907 854.922 458.96C855.095 459 855.342 459.027 855.662 459.04C855.995 459.053 856.435 459.06 856.982 459.06C857.929 459.06 858.682 459.147 859.242 459.32C859.815 459.493 860.222 459.8 860.462 460.24C860.702 460.68 860.822 461.3 860.822 462.1C860.822 463.287 860.402 464.16 859.562 464.72C858.735 465.293 857.582 465.58 856.102 465.58ZM855.962 463.6C856.789 463.6 857.382 463.5 857.742 463.3C858.115 463.113 858.302 462.8 858.302 462.36C858.302 462.013 858.235 461.76 858.102 461.6C857.982 461.44 857.775 461.333 857.482 461.28C857.189 461.24 856.789 461.22 856.282 461.22C856.149 461.22 855.989 461.213 855.802 461.2C855.615 461.2 855.422 461.193 855.222 461.18C855.035 461.18 854.862 461.173 854.702 461.16C854.555 461.147 854.449 461.14 854.382 461.14C854.195 461.273 854.042 461.4 853.922 461.52C853.815 461.64 853.735 461.76 853.682 461.88C853.642 462.013 853.622 462.173 853.622 462.36C853.622 462.667 853.695 462.907 853.842 463.08C853.989 463.267 854.229 463.4 854.562 463.48C854.909 463.56 855.375 463.6 855.962 463.6ZM855.622 455.82C856.235 455.82 856.669 455.7 856.922 455.46C857.189 455.207 857.322 454.793 857.322 454.22C857.322 453.647 857.189 453.233 856.922 452.98C856.669 452.727 856.235 452.6 855.622 452.6C855.035 452.6 854.609 452.727 854.342 452.98C854.089 453.233 853.962 453.647 853.962 454.22C853.962 454.793 854.089 455.207 854.342 455.46C854.609 455.7 855.035 455.82 855.622 455.82ZM862.346 461V450.96H865.006V451.6C865.219 451.467 865.479 451.34 865.786 451.22C866.093 451.087 866.413 450.973 866.746 450.88C867.093 450.787 867.426 450.74 867.746 450.74C868.439 450.74 869.013 450.833 869.466 451.02C869.933 451.193 870.299 451.48 870.566 451.88C870.833 452.28 871.026 452.807 871.146 453.46C871.266 454.1 871.326 454.88 871.326 455.8V461H868.646V455.94C868.646 455.247 868.606 454.693 868.526 454.28C868.446 453.853 868.293 453.547 868.066 453.36C867.839 453.173 867.506 453.08 867.066 453.08C866.826 453.08 866.573 453.107 866.306 453.16C866.053 453.2 865.806 453.26 865.566 453.34C865.339 453.42 865.153 453.5 865.006 453.58V461H862.346Z" fill="white"/>
<rect x="899" y="509" width="303" height="54" rx="27" fill="#666666"/>
<path d="M993.26 543V529.34H998.48C999.547 529.34 1000.44 529.493 1001.16 529.8C1001.89 530.093 1002.48 530.527 1002.92 531.1C1003.36 531.673 1003.67 532.367 1003.86 533.18C1004.06 533.993 1004.16 534.92 1004.16 535.96C1004.16 537.013 1004.07 537.967 1003.88 538.82C1003.71 539.673 1003.41 540.413 1002.98 541.04C1002.55 541.667 1001.98 542.153 1001.26 542.5C1000.54 542.833 999.64 543 998.56 543H993.26ZM996.02 540.68H998.4C999.027 540.68 999.533 540.56 999.92 540.32C1000.31 540.08 1000.6 539.747 1000.8 539.32C1001.01 538.88 1001.15 538.38 1001.22 537.82C1001.3 537.247 1001.34 536.627 1001.34 535.96C1001.34 535.32 1001.3 534.74 1001.22 534.22C1001.14 533.687 1000.99 533.233 1000.78 532.86C1000.58 532.473 1000.29 532.18 999.9 531.98C999.527 531.767 999.027 531.66 998.4 531.66H996.02V540.68ZM1010.13 543.22C1009.02 543.22 1008.14 543.033 1007.49 542.66C1006.85 542.287 1006.39 541.72 1006.11 540.96C1005.83 540.2 1005.69 539.247 1005.69 538.1C1005.69 536.86 1005.86 535.847 1006.21 535.06C1006.57 534.273 1007.09 533.693 1007.77 533.32C1008.45 532.933 1009.29 532.74 1010.29 532.74C1011.77 532.74 1012.88 533.113 1013.63 533.86C1014.39 534.607 1014.77 535.787 1014.77 537.4L1014.65 538.88H1008.37C1008.38 539.627 1008.54 540.187 1008.83 540.56C1009.12 540.933 1009.63 541.12 1010.35 541.12C1010.76 541.12 1011.22 541.113 1011.71 541.1C1012.2 541.073 1012.69 541.047 1013.17 541.02C1013.66 540.993 1014.08 540.967 1014.43 540.94L1014.49 542.8C1014.16 542.853 1013.74 542.913 1013.23 542.98C1012.72 543.047 1012.2 543.1 1011.65 543.14C1011.12 543.193 1010.61 543.22 1010.13 543.22ZM1008.37 537.18H1012.11C1012.11 536.273 1011.96 535.64 1011.67 535.28C1011.39 534.92 1010.93 534.74 1010.29 534.74C1009.86 534.74 1009.51 534.82 1009.23 534.98C1008.95 535.14 1008.74 535.4 1008.59 535.76C1008.44 536.12 1008.37 536.593 1008.37 537.18ZM1018 543L1015.62 532.96H1018.48L1020.16 540.74H1020.74L1022.46 532.96H1025.16L1022.78 543H1018ZM1030.46 543.22C1029.35 543.22 1028.47 543.033 1027.82 542.66C1027.18 542.287 1026.72 541.72 1026.44 540.96C1026.16 540.2 1026.02 539.247 1026.02 538.1C1026.02 536.86 1026.19 535.847 1026.54 535.06C1026.9 534.273 1027.42 533.693 1028.1 533.32C1028.78 532.933 1029.62 532.74 1030.62 532.74C1032.1 532.74 1033.21 533.113 1033.96 533.86C1034.72 534.607 1035.1 535.787 1035.1 537.4L1034.98 538.88H1028.7C1028.71 539.627 1028.87 540.187 1029.16 540.56C1029.45 540.933 1029.96 541.12 1030.68 541.12C1031.09 541.12 1031.55 541.113 1032.04 541.1C1032.53 541.073 1033.02 541.047 1033.5 541.02C1033.99 540.993 1034.41 540.967 1034.76 540.94L1034.82 542.8C1034.49 542.853 1034.07 542.913 1033.56 542.98C1033.05 543.047 1032.53 543.1 1031.98 543.14C1031.45 543.193 1030.94 543.22 1030.46 543.22ZM1028.7 537.18H1032.44C1032.44 536.273 1032.29 535.64 1032 535.28C1031.72 534.92 1031.26 534.74 1030.62 534.74C1030.19 534.74 1029.84 534.82 1029.56 534.98C1029.28 535.14 1029.07 535.4 1028.92 535.76C1028.77 536.12 1028.7 536.593 1028.7 537.18ZM1036.95 543V528.86H1039.61V543H1036.95ZM1046.21 543.22C1045.08 543.22 1044.16 543.033 1043.47 542.66C1042.79 542.287 1042.3 541.713 1041.99 540.94C1041.68 540.153 1041.53 539.14 1041.53 537.9C1041.53 536.7 1041.69 535.727 1042.01 534.98C1042.33 534.22 1042.84 533.66 1043.53 533.3C1044.22 532.927 1045.12 532.74 1046.21 532.74C1047.32 532.74 1048.21 532.927 1048.89 533.3C1049.58 533.66 1050.09 534.22 1050.41 534.98C1050.74 535.727 1050.91 536.7 1050.91 537.9C1050.91 539.14 1050.76 540.153 1050.45 540.94C1050.14 541.713 1049.64 542.287 1048.95 542.66C1048.27 543.033 1047.36 543.22 1046.21 543.22ZM1046.21 541.02C1046.77 541.02 1047.19 540.92 1047.47 540.72C1047.75 540.507 1047.94 540.173 1048.03 539.72C1048.14 539.253 1048.19 538.647 1048.19 537.9C1048.19 537.167 1048.13 536.587 1048.01 536.16C1047.89 535.72 1047.69 535.407 1047.41 535.22C1047.13 535.033 1046.73 534.94 1046.21 534.94C1045.7 534.94 1045.3 535.033 1045.01 535.22C1044.73 535.407 1044.53 535.72 1044.41 536.16C1044.29 536.587 1044.23 537.167 1044.23 537.9C1044.23 538.647 1044.28 539.253 1044.37 539.72C1044.48 540.173 1044.67 540.507 1044.95 540.72C1045.23 540.92 1045.65 541.02 1046.21 541.02ZM1052.73 547.22V532.96H1055.37L1055.39 533.6C1055.58 533.48 1055.81 533.353 1056.09 533.22C1056.38 533.087 1056.7 532.973 1057.03 532.88C1057.36 532.787 1057.69 532.74 1058.01 532.74C1058.9 532.74 1059.62 532.933 1060.17 533.32C1060.73 533.693 1061.14 534.267 1061.39 535.04C1061.66 535.8 1061.79 536.767 1061.79 537.94C1061.79 539.193 1061.64 540.207 1061.35 540.98C1061.06 541.753 1060.58 542.32 1059.93 542.68C1059.29 543.04 1058.44 543.22 1057.39 543.22C1057.06 543.22 1056.7 543.193 1056.31 543.14C1055.92 543.087 1055.62 543.033 1055.39 542.98V547.22H1052.73ZM1056.97 541C1057.5 541 1057.92 540.887 1058.23 540.66C1058.54 540.433 1058.75 540.093 1058.87 539.64C1059 539.173 1059.07 538.587 1059.07 537.88C1059.07 536.787 1058.92 536.033 1058.61 535.62C1058.32 535.193 1057.89 534.98 1057.33 534.98C1057.12 534.98 1056.89 535.007 1056.65 535.06C1056.41 535.113 1056.18 535.18 1055.95 535.26C1055.72 535.34 1055.54 535.42 1055.39 535.5V540.86C1055.55 540.873 1055.78 540.9 1056.07 540.94C1056.38 540.98 1056.68 541 1056.97 541ZM1063.61 543V532.96H1066.27V533.6C1066.47 533.467 1066.72 533.34 1067.03 533.22C1067.33 533.087 1067.65 532.973 1067.99 532.88C1068.33 532.787 1068.67 532.74 1068.99 532.74C1069.6 532.74 1070.1 532.827 1070.49 533C1070.87 533.16 1071.19 533.4 1071.45 533.72C1071.69 533.573 1071.99 533.427 1072.35 533.28C1072.71 533.133 1073.1 533.007 1073.53 532.9C1073.95 532.793 1074.37 532.74 1074.77 532.74C1075.5 532.74 1076.1 532.84 1076.57 533.04C1077.05 533.227 1077.42 533.527 1077.69 533.94C1077.95 534.34 1078.14 534.86 1078.25 535.5C1078.35 536.127 1078.41 536.887 1078.41 537.78V543H1075.75V538.02C1075.75 537.327 1075.71 536.767 1075.63 536.34C1075.56 535.9 1075.41 535.58 1075.19 535.38C1074.97 535.18 1074.65 535.08 1074.21 535.08C1073.97 535.08 1073.71 535.107 1073.45 535.16C1073.18 535.2 1072.93 535.26 1072.71 535.34C1072.49 535.42 1072.32 535.493 1072.19 535.56C1072.25 535.84 1072.3 536.2 1072.33 536.64C1072.37 537.08 1072.39 537.54 1072.39 538.02V543H1069.73V538.06C1069.73 537.353 1069.69 536.78 1069.61 536.34C1069.54 535.9 1069.39 535.58 1069.17 535.38C1068.94 535.18 1068.61 535.08 1068.19 535.08C1067.95 535.08 1067.7 535.107 1067.45 535.16C1067.21 535.2 1066.98 535.26 1066.77 535.34C1066.57 535.42 1066.4 535.493 1066.27 535.56V543H1063.61ZM1084.58 543.22C1083.48 543.22 1082.6 543.033 1081.94 542.66C1081.3 542.287 1080.84 541.72 1080.56 540.96C1080.28 540.2 1080.14 539.247 1080.14 538.1C1080.14 536.86 1080.32 535.847 1080.66 535.06C1081.02 534.273 1081.54 533.693 1082.22 533.32C1082.9 532.933 1083.74 532.74 1084.74 532.74C1086.22 532.74 1087.34 533.113 1088.08 533.86C1088.84 534.607 1089.22 535.787 1089.22 537.4L1089.1 538.88H1082.82C1082.84 539.627 1082.99 540.187 1083.28 540.56C1083.58 540.933 1084.08 541.12 1084.8 541.12C1085.22 541.12 1085.67 541.113 1086.16 541.1C1086.66 541.073 1087.14 541.047 1087.62 541.02C1088.12 540.993 1088.54 540.967 1088.88 540.94L1088.94 542.8C1088.61 542.853 1088.19 542.913 1087.68 542.98C1087.18 543.047 1086.65 543.1 1086.1 543.14C1085.57 543.193 1085.06 543.22 1084.58 543.22ZM1082.82 537.18H1086.56C1086.56 536.273 1086.42 535.64 1086.12 535.28C1085.84 534.92 1085.38 534.74 1084.74 534.74C1084.32 534.74 1083.96 534.82 1083.68 534.98C1083.4 535.14 1083.19 535.4 1083.04 535.76C1082.9 536.12 1082.82 536.593 1082.82 537.18ZM1090.99 543V532.96H1093.65V533.6C1093.86 533.467 1094.12 533.34 1094.43 533.22C1094.74 533.087 1095.06 532.973 1095.39 532.88C1095.74 532.787 1096.07 532.74 1096.39 532.74C1097.08 532.74 1097.66 532.833 1098.11 533.02C1098.58 533.193 1098.94 533.48 1099.21 533.88C1099.48 534.28 1099.67 534.807 1099.79 535.46C1099.91 536.1 1099.97 536.88 1099.97 537.8V543H1097.29V537.94C1097.29 537.247 1097.25 536.693 1097.17 536.28C1097.09 535.853 1096.94 535.547 1096.71 535.36C1096.48 535.173 1096.15 535.08 1095.71 535.08C1095.47 535.08 1095.22 535.107 1094.95 535.16C1094.7 535.2 1094.45 535.26 1094.21 535.34C1093.98 535.42 1093.8 535.5 1093.65 535.58V543H1090.99ZM1105.53 543.24C1104.79 543.24 1104.2 543.133 1103.75 542.92C1103.29 542.707 1102.97 542.34 1102.77 541.82C1102.58 541.287 1102.49 540.547 1102.49 539.6V535.18H1101.31V532.96H1102.49V530.3H1105.15V532.96H1107.71V535.18H1105.15V538.9C1105.15 539.42 1105.17 539.827 1105.21 540.12C1105.26 540.413 1105.37 540.62 1105.53 540.74C1105.69 540.86 1105.93 540.92 1106.27 540.92C1106.36 540.92 1106.5 540.913 1106.69 540.9C1106.87 540.887 1107.06 540.873 1107.25 540.86C1107.43 540.847 1107.59 540.833 1107.71 540.82L1107.79 542.96C1107.59 543 1107.34 543.04 1107.05 543.08C1106.77 543.12 1106.49 543.153 1106.21 543.18C1105.94 543.22 1105.71 543.24 1105.53 543.24Z" fill="white"/>
<rect x="526" y="345" width="205" height="54" rx="27" fill="#666666"/>
<path d="M576.74 379L574.42 365.34H577.2L578.88 376.34H579.36L581.44 365.48H584.54L586.66 376.34H587.14L588.72 365.34H591.52L589.24 379H584.86L582.92 368.16H583.02L581.06 379H576.74ZM593.069 379V368.96H595.729V379H593.069ZM593.069 367.36V365.08H595.749V367.36H593.069ZM597.952 379V368.96H600.612V370.14C600.838 369.967 601.118 369.787 601.452 369.6C601.785 369.4 602.145 369.22 602.532 369.06C602.932 368.887 603.312 368.773 603.672 368.72V371.3C603.325 371.353 602.958 371.447 602.572 371.58C602.185 371.7 601.818 371.833 601.472 371.98C601.138 372.127 600.852 372.26 600.612 372.38V379H597.952ZM609.004 379.22C607.897 379.22 607.017 379.033 606.364 378.66C605.724 378.287 605.264 377.72 604.984 376.96C604.704 376.2 604.564 375.247 604.564 374.1C604.564 372.86 604.737 371.847 605.084 371.06C605.444 370.273 605.964 369.693 606.644 369.32C607.324 368.933 608.164 368.74 609.164 368.74C610.644 368.74 611.757 369.113 612.504 369.86C613.264 370.607 613.644 371.787 613.644 373.4L613.524 374.88H607.244C607.257 375.627 607.41 376.187 607.704 376.56C607.997 376.933 608.504 377.12 609.224 377.12C609.637 377.12 610.09 377.113 610.584 377.1C611.077 377.073 611.564 377.047 612.044 377.02C612.537 376.993 612.957 376.967 613.304 376.94L613.364 378.8C613.03 378.853 612.61 378.913 612.104 378.98C611.597 379.047 611.07 379.1 610.524 379.14C609.99 379.193 609.484 379.22 609.004 379.22ZM607.244 373.18H610.984C610.984 372.273 610.837 371.64 610.544 371.28C610.264 370.92 609.804 370.74 609.164 370.74C608.737 370.74 608.384 370.82 608.104 370.98C607.824 371.14 607.61 371.4 607.464 371.76C607.317 372.12 607.244 372.593 607.244 373.18ZM615.813 379V371.18H614.813V368.96H615.813V368.38C615.813 367.433 615.899 366.687 616.073 366.14C616.259 365.593 616.573 365.207 617.013 364.98C617.453 364.753 618.046 364.64 618.793 364.64C619.006 364.64 619.259 364.653 619.553 364.68C619.859 364.693 620.153 364.713 620.433 364.74C620.713 364.767 620.926 364.793 621.073 364.82L621.053 366.86C620.839 366.86 620.599 366.86 620.333 366.86C620.079 366.847 619.859 366.84 619.673 366.84C619.379 366.84 619.139 366.887 618.953 366.98C618.779 367.073 618.653 367.227 618.573 367.44C618.506 367.653 618.473 367.96 618.473 368.36V368.96H620.873V371.18H618.473V379H615.813ZM622.248 379V368.96H624.908V370.14C625.135 369.967 625.415 369.787 625.748 369.6C626.082 369.4 626.442 369.22 626.828 369.06C627.228 368.887 627.608 368.773 627.968 368.72V371.3C627.622 371.353 627.255 371.447 626.868 371.58C626.482 371.7 626.115 371.833 625.768 371.98C625.435 372.127 625.148 372.26 624.908 372.38V379H622.248ZM631.978 379.22C630.938 379.22 630.151 378.96 629.618 378.44C629.098 377.907 628.838 377.107 628.838 376.04C628.838 375.293 628.971 374.713 629.238 374.3C629.504 373.873 629.898 373.567 630.418 373.38C630.951 373.18 631.598 373.06 632.358 373.02L634.798 372.8V372.2C634.798 371.72 634.678 371.387 634.438 371.2C634.198 371 633.844 370.9 633.378 370.9C633.004 370.9 632.571 370.913 632.078 370.94C631.598 370.967 631.118 371 630.638 371.04C630.171 371.08 629.764 371.12 629.418 371.16L629.338 369.28C629.684 369.2 630.098 369.12 630.578 369.04C631.071 368.947 631.584 368.873 632.118 368.82C632.651 368.767 633.144 368.74 633.598 368.74C634.451 368.74 635.164 368.847 635.738 369.06C636.311 369.273 636.744 369.627 637.038 370.12C637.331 370.6 637.478 371.253 637.478 372.08V376.66C637.504 376.847 637.604 376.993 637.778 377.1C637.951 377.193 638.151 377.26 638.378 377.3L638.318 379.14C638.104 379.14 637.891 379.14 637.678 379.14C637.478 379.153 637.284 379.153 637.098 379.14C636.911 379.14 636.744 379.127 636.598 379.1C636.291 379.06 636.024 378.98 635.798 378.86C635.584 378.74 635.411 378.613 635.278 378.48C635.064 378.573 634.778 378.68 634.418 378.8C634.058 378.92 633.664 379.02 633.238 379.1C632.824 379.18 632.404 379.22 631.978 379.22ZM632.618 377.24C632.871 377.24 633.138 377.213 633.418 377.16C633.698 377.107 633.958 377.047 634.198 376.98C634.451 376.9 634.651 376.827 634.798 376.76V374.46L632.758 374.64C632.318 374.68 631.998 374.813 631.798 375.04C631.611 375.253 631.518 375.56 631.518 375.96C631.518 376.36 631.604 376.673 631.778 376.9C631.964 377.127 632.244 377.24 632.618 377.24ZM639.827 379V368.96H642.487V369.6C642.687 369.467 642.94 369.34 643.247 369.22C643.553 369.087 643.873 368.973 644.207 368.88C644.553 368.787 644.887 368.74 645.207 368.74C645.82 368.74 646.32 368.827 646.707 369C647.093 369.16 647.413 369.4 647.667 369.72C647.907 369.573 648.207 369.427 648.567 369.28C648.927 369.133 649.32 369.007 649.747 368.9C650.173 368.793 650.587 368.74 650.987 368.74C651.72 368.74 652.32 368.84 652.787 369.04C653.267 369.227 653.64 369.527 653.907 369.94C654.173 370.34 654.36 370.86 654.467 371.5C654.573 372.127 654.627 372.887 654.627 373.78V379H651.967V374.02C651.967 373.327 651.927 372.767 651.847 372.34C651.78 371.9 651.633 371.58 651.407 371.38C651.193 371.18 650.867 371.08 650.427 371.08C650.187 371.08 649.933 371.107 649.667 371.16C649.4 371.2 649.153 371.26 648.927 371.34C648.713 371.42 648.54 371.493 648.407 371.56C648.473 371.84 648.52 372.2 648.547 372.64C648.587 373.08 648.607 373.54 648.607 374.02V379H645.947V374.06C645.947 373.353 645.907 372.78 645.827 372.34C645.76 371.9 645.613 371.58 645.387 371.38C645.16 371.18 644.833 371.08 644.407 371.08C644.167 371.08 643.92 371.107 643.667 371.16C643.427 371.2 643.2 371.26 642.987 371.34C642.787 371.42 642.62 371.493 642.487 371.56V379H639.827ZM656.741 379V368.96H659.401V379H656.741ZM656.741 367.36V365.08H659.421V367.36H656.741ZM661.623 379V368.96H664.283V369.6C664.497 369.467 664.757 369.34 665.063 369.22C665.37 369.087 665.69 368.973 666.023 368.88C666.37 368.787 666.703 368.74 667.023 368.74C667.717 368.74 668.29 368.833 668.743 369.02C669.21 369.193 669.577 369.48 669.843 369.88C670.11 370.28 670.303 370.807 670.423 371.46C670.543 372.1 670.603 372.88 670.603 373.8V379H667.923V373.94C667.923 373.247 667.883 372.693 667.803 372.28C667.723 371.853 667.57 371.547 667.343 371.36C667.117 371.173 666.783 371.08 666.343 371.08C666.103 371.08 665.85 371.107 665.583 371.16C665.33 371.2 665.083 371.26 664.843 371.34C664.617 371.42 664.43 371.5 664.283 371.58V379H661.623ZM677.098 383.58C676.031 383.58 675.138 383.5 674.418 383.34C673.711 383.18 673.178 382.887 672.818 382.46C672.458 382.047 672.278 381.447 672.278 380.66C672.278 380.313 672.325 380 672.418 379.72C672.525 379.453 672.685 379.2 672.898 378.96C673.125 378.72 673.405 378.473 673.738 378.22C673.551 378.087 673.398 377.893 673.278 377.64C673.171 377.373 673.118 377.087 673.118 376.78C673.118 376.673 673.165 376.533 673.258 376.36C673.351 376.173 673.465 375.98 673.598 375.78C673.731 375.58 673.858 375.4 673.978 375.24C673.711 375.12 673.458 374.947 673.218 374.72C672.978 374.48 672.778 374.16 672.618 373.76C672.471 373.36 672.398 372.847 672.398 372.22C672.398 371.367 672.558 370.687 672.878 370.18C673.211 369.673 673.691 369.307 674.318 369.08C674.945 368.853 675.705 368.74 676.598 368.74C676.945 368.74 677.318 368.767 677.718 368.82C678.118 368.873 678.438 368.927 678.678 368.98L681.938 368.92V370.72L680.418 370.7C680.538 370.86 680.645 371.067 680.738 371.32C680.845 371.56 680.898 371.86 680.898 372.22C680.898 373.14 680.738 373.853 680.418 374.36C680.111 374.867 679.645 375.22 679.018 375.42C678.391 375.607 677.598 375.7 676.638 375.7C676.531 375.7 676.385 375.693 676.198 375.68C676.011 375.653 675.858 375.633 675.738 375.62C675.685 375.753 675.631 375.907 675.578 376.08C675.525 376.24 675.498 376.353 675.498 376.42C675.498 376.567 675.525 376.68 675.578 376.76C675.645 376.84 675.758 376.907 675.918 376.96C676.091 377 676.338 377.027 676.658 377.04C676.991 377.053 677.431 377.06 677.978 377.06C678.925 377.06 679.678 377.147 680.238 377.32C680.811 377.493 681.218 377.8 681.458 378.24C681.698 378.68 681.818 379.3 681.818 380.1C681.818 381.287 681.398 382.16 680.558 382.72C679.731 383.293 678.578 383.58 677.098 383.58ZM676.958 381.6C677.785 381.6 678.378 381.5 678.738 381.3C679.111 381.113 679.298 380.8 679.298 380.36C679.298 380.013 679.231 379.76 679.098 379.6C678.978 379.44 678.771 379.333 678.478 379.28C678.185 379.24 677.785 379.22 677.278 379.22C677.145 379.22 676.985 379.213 676.798 379.2C676.611 379.2 676.418 379.193 676.218 379.18C676.031 379.18 675.858 379.173 675.698 379.16C675.551 379.147 675.445 379.14 675.378 379.14C675.191 379.273 675.038 379.4 674.918 379.52C674.811 379.64 674.731 379.76 674.678 379.88C674.638 380.013 674.618 380.173 674.618 380.36C674.618 380.667 674.691 380.907 674.838 381.08C674.985 381.267 675.225 381.4 675.558 381.48C675.905 381.56 676.371 381.6 676.958 381.6ZM676.618 373.82C677.231 373.82 677.665 373.7 677.918 373.46C678.185 373.207 678.318 372.793 678.318 372.22C678.318 371.647 678.185 371.233 677.918 370.98C677.665 370.727 677.231 370.6 676.618 370.6C676.031 370.6 675.605 370.727 675.338 370.98C675.085 371.233 674.958 371.647 674.958 372.22C674.958 372.793 675.085 373.207 675.338 373.46C675.605 373.7 676.031 373.82 676.618 373.82Z" fill="white"/>
<rect x="359" y="263" width="213" height="54" rx="27" fill="#666666"/>
<path d="M433.68 297.22C433.173 297.22 432.62 297.187 432.02 297.12C431.42 297.067 430.833 297 430.26 296.92C429.7 296.827 429.22 296.747 428.82 296.68L429 294.5C429.413 294.553 429.893 294.613 430.44 294.68C430.987 294.733 431.527 294.78 432.06 294.82C432.607 294.86 433.08 294.88 433.48 294.88C433.987 294.88 434.4 294.813 434.72 294.68C435.04 294.547 435.273 294.347 435.42 294.08C435.58 293.8 435.66 293.447 435.66 293.02C435.66 292.673 435.587 292.4 435.44 292.2C435.307 291.987 435.06 291.82 434.7 291.7C434.34 291.567 433.84 291.44 433.2 291.32C432.4 291.173 431.713 291 431.14 290.8C430.58 290.6 430.12 290.353 429.76 290.06C429.4 289.753 429.133 289.367 428.96 288.9C428.8 288.433 428.72 287.867 428.72 287.2C428.72 286.16 428.913 285.347 429.3 284.76C429.687 284.16 430.24 283.733 430.96 283.48C431.68 283.227 432.527 283.1 433.5 283.1C433.94 283.1 434.44 283.127 435 283.18C435.573 283.22 436.133 283.273 436.68 283.34C437.24 283.407 437.713 283.48 438.1 283.56L437.98 285.76C437.58 285.707 437.113 285.66 436.58 285.62C436.06 285.567 435.54 285.52 435.02 285.48C434.513 285.44 434.08 285.42 433.72 285.42C433.227 285.42 432.813 285.473 432.48 285.58C432.147 285.687 431.9 285.853 431.74 286.08C431.58 286.307 431.5 286.593 431.5 286.94C431.5 287.34 431.58 287.647 431.74 287.86C431.9 288.073 432.167 288.247 432.54 288.38C432.927 288.513 433.453 288.653 434.12 288.8C434.907 288.973 435.573 289.16 436.12 289.36C436.68 289.56 437.127 289.8 437.46 290.08C437.807 290.36 438.06 290.72 438.22 291.16C438.38 291.6 438.46 292.153 438.46 292.82C438.46 293.887 438.267 294.747 437.88 295.4C437.507 296.04 436.96 296.507 436.24 296.8C435.533 297.08 434.68 297.22 433.68 297.22ZM443.597 297.24C442.863 297.24 442.27 297.133 441.817 296.92C441.363 296.707 441.037 296.34 440.837 295.82C440.65 295.287 440.557 294.547 440.557 293.6V289.18H439.377V286.96H440.557V284.3H443.217V286.96H445.777V289.18H443.217V292.9C443.217 293.42 443.237 293.827 443.277 294.12C443.33 294.413 443.437 294.62 443.597 294.74C443.757 294.86 444.003 294.92 444.337 294.92C444.43 294.92 444.57 294.913 444.757 294.9C444.943 294.887 445.13 294.873 445.317 294.86C445.503 294.847 445.657 294.833 445.777 294.82L445.857 296.96C445.657 297 445.41 297.04 445.117 297.08C444.837 297.12 444.557 297.153 444.277 297.18C444.01 297.22 443.783 297.24 443.597 297.24ZM447.264 297V286.96H449.924V288.14C450.151 287.967 450.431 287.787 450.764 287.6C451.097 287.4 451.457 287.22 451.844 287.06C452.244 286.887 452.624 286.773 452.984 286.72V289.3C452.637 289.353 452.271 289.447 451.884 289.58C451.497 289.7 451.131 289.833 450.784 289.98C450.451 290.127 450.164 290.26 449.924 290.38V297H447.264ZM456.993 297.22C455.953 297.22 455.167 296.96 454.633 296.44C454.113 295.907 453.853 295.107 453.853 294.04C453.853 293.293 453.987 292.713 454.253 292.3C454.52 291.873 454.913 291.567 455.433 291.38C455.967 291.18 456.613 291.06 457.373 291.02L459.813 290.8V290.2C459.813 289.72 459.693 289.387 459.453 289.2C459.213 289 458.86 288.9 458.393 288.9C458.02 288.9 457.587 288.913 457.093 288.94C456.613 288.967 456.133 289 455.653 289.04C455.187 289.08 454.78 289.12 454.433 289.16L454.353 287.28C454.7 287.2 455.113 287.12 455.593 287.04C456.087 286.947 456.6 286.873 457.133 286.82C457.667 286.767 458.16 286.74 458.613 286.74C459.467 286.74 460.18 286.847 460.753 287.06C461.327 287.273 461.76 287.627 462.053 288.12C462.347 288.6 462.493 289.253 462.493 290.08V294.66C462.52 294.847 462.62 294.993 462.793 295.1C462.967 295.193 463.167 295.26 463.393 295.3L463.333 297.14C463.12 297.14 462.907 297.14 462.693 297.14C462.493 297.153 462.3 297.153 462.113 297.14C461.927 297.14 461.76 297.127 461.613 297.1C461.307 297.06 461.04 296.98 460.813 296.86C460.6 296.74 460.427 296.613 460.293 296.48C460.08 296.573 459.793 296.68 459.433 296.8C459.073 296.92 458.68 297.02 458.253 297.1C457.84 297.18 457.42 297.22 456.993 297.22ZM457.633 295.24C457.887 295.24 458.153 295.213 458.433 295.16C458.713 295.107 458.973 295.047 459.213 294.98C459.467 294.9 459.667 294.827 459.813 294.76V292.46L457.773 292.64C457.333 292.68 457.013 292.813 456.813 293.04C456.627 293.253 456.533 293.56 456.533 293.96C456.533 294.36 456.62 294.673 456.793 294.9C456.98 295.127 457.26 295.24 457.633 295.24ZM468.245 297.24C467.512 297.24 466.918 297.133 466.465 296.92C466.012 296.707 465.685 296.34 465.485 295.82C465.298 295.287 465.205 294.547 465.205 293.6V289.18H464.025V286.96H465.205V284.3H467.865V286.96H470.425V289.18H467.865V292.9C467.865 293.42 467.885 293.827 467.925 294.12C467.978 294.413 468.085 294.62 468.245 294.74C468.405 294.86 468.652 294.92 468.985 294.92C469.078 294.92 469.218 294.913 469.405 294.9C469.592 294.887 469.778 294.873 469.965 294.86C470.152 294.847 470.305 294.833 470.425 294.82L470.505 296.96C470.305 297 470.058 297.04 469.765 297.08C469.485 297.12 469.205 297.153 468.925 297.18C468.658 297.22 468.432 297.24 468.245 297.24ZM475.973 297.22C474.866 297.22 473.986 297.033 473.333 296.66C472.693 296.287 472.233 295.72 471.953 294.96C471.673 294.2 471.533 293.247 471.533 292.1C471.533 290.86 471.706 289.847 472.053 289.06C472.413 288.273 472.933 287.693 473.613 287.32C474.293 286.933 475.133 286.74 476.133 286.74C477.613 286.74 478.726 287.113 479.473 287.86C480.233 288.607 480.613 289.787 480.613 291.4L480.493 292.88H474.213C474.226 293.627 474.379 294.187 474.673 294.56C474.966 294.933 475.473 295.12 476.193 295.12C476.606 295.12 477.059 295.113 477.553 295.1C478.046 295.073 478.533 295.047 479.013 295.02C479.506 294.993 479.926 294.967 480.273 294.94L480.333 296.8C479.999 296.853 479.579 296.913 479.073 296.98C478.566 297.047 478.039 297.1 477.493 297.14C476.959 297.193 476.453 297.22 475.973 297.22ZM474.213 291.18H477.953C477.953 290.273 477.806 289.64 477.513 289.28C477.233 288.92 476.773 288.74 476.133 288.74C475.706 288.74 475.353 288.82 475.073 288.98C474.793 289.14 474.579 289.4 474.433 289.76C474.286 290.12 474.213 290.593 474.213 291.18ZM486.801 301.58C485.735 301.58 484.841 301.5 484.121 301.34C483.415 301.18 482.881 300.887 482.521 300.46C482.161 300.047 481.981 299.447 481.981 298.66C481.981 298.313 482.028 298 482.121 297.72C482.228 297.453 482.388 297.2 482.601 296.96C482.828 296.72 483.108 296.473 483.441 296.22C483.255 296.087 483.101 295.893 482.981 295.64C482.875 295.373 482.821 295.087 482.821 294.78C482.821 294.673 482.868 294.533 482.961 294.36C483.055 294.173 483.168 293.98 483.301 293.78C483.435 293.58 483.561 293.4 483.681 293.24C483.415 293.12 483.161 292.947 482.921 292.72C482.681 292.48 482.481 292.16 482.321 291.76C482.175 291.36 482.101 290.847 482.101 290.22C482.101 289.367 482.261 288.687 482.581 288.18C482.915 287.673 483.395 287.307 484.021 287.08C484.648 286.853 485.408 286.74 486.301 286.74C486.648 286.74 487.021 286.767 487.421 286.82C487.821 286.873 488.141 286.927 488.381 286.98L491.641 286.92V288.72L490.121 288.7C490.241 288.86 490.348 289.067 490.441 289.32C490.548 289.56 490.601 289.86 490.601 290.22C490.601 291.14 490.441 291.853 490.121 292.36C489.815 292.867 489.348 293.22 488.721 293.42C488.095 293.607 487.301 293.7 486.341 293.7C486.235 293.7 486.088 293.693 485.901 293.68C485.715 293.653 485.561 293.633 485.441 293.62C485.388 293.753 485.335 293.907 485.281 294.08C485.228 294.24 485.201 294.353 485.201 294.42C485.201 294.567 485.228 294.68 485.281 294.76C485.348 294.84 485.461 294.907 485.621 294.96C485.795 295 486.041 295.027 486.361 295.04C486.695 295.053 487.135 295.06 487.681 295.06C488.628 295.06 489.381 295.147 489.941 295.32C490.515 295.493 490.921 295.8 491.161 296.24C491.401 296.68 491.521 297.3 491.521 298.1C491.521 299.287 491.101 300.16 490.261 300.72C489.435 301.293 488.281 301.58 486.801 301.58ZM486.661 299.6C487.488 299.6 488.081 299.5 488.441 299.3C488.815 299.113 489.001 298.8 489.001 298.36C489.001 298.013 488.935 297.76 488.801 297.6C488.681 297.44 488.475 297.333 488.181 297.28C487.888 297.24 487.488 297.22 486.981 297.22C486.848 297.22 486.688 297.213 486.501 297.2C486.315 297.2 486.121 297.193 485.921 297.18C485.735 297.18 485.561 297.173 485.401 297.16C485.255 297.147 485.148 297.14 485.081 297.14C484.895 297.273 484.741 297.4 484.621 297.52C484.515 297.64 484.435 297.76 484.381 297.88C484.341 298.013 484.321 298.173 484.321 298.36C484.321 298.667 484.395 298.907 484.541 299.08C484.688 299.267 484.928 299.4 485.261 299.48C485.608 299.56 486.075 299.6 486.661 299.6ZM486.321 291.82C486.935 291.82 487.368 291.7 487.621 291.46C487.888 291.207 488.021 290.793 488.021 290.22C488.021 289.647 487.888 289.233 487.621 288.98C487.368 288.727 486.935 288.6 486.321 288.6C485.735 288.6 485.308 288.727 485.041 288.98C484.788 289.233 484.661 289.647 484.661 290.22C484.661 290.793 484.788 291.207 485.041 291.46C485.308 291.7 485.735 291.82 486.321 291.82ZM495.505 301.22L496.785 297H494.645L492.265 286.96H495.045L496.825 294.74H497.345L499.125 286.96H501.805L498.345 301.22H495.505Z" fill="white"/>
<rect x="226" y="181" width="199" height="54" rx="27" fill="#666666"/>
<path d="M286.26 215V201.34H291.6C292.693 201.34 293.607 201.48 294.34 201.76C295.087 202.04 295.64 202.507 296 203.16C296.373 203.813 296.56 204.7 296.56 205.82C296.56 206.807 296.38 207.64 296.02 208.32C295.673 208.987 295.14 209.48 294.42 209.8L296.56 215H293.66L291.86 210.42H289.02V215H286.26ZM289.02 208.16H291.66C292.167 208.16 292.573 208.067 292.88 207.88C293.187 207.68 293.407 207.407 293.54 207.06C293.673 206.7 293.74 206.293 293.74 205.84C293.74 205.093 293.567 204.533 293.22 204.16C292.873 203.787 292.333 203.6 291.6 203.6H289.02V208.16ZM302.387 215.22C301.28 215.22 300.4 215.033 299.747 214.66C299.107 214.287 298.647 213.72 298.367 212.96C298.087 212.2 297.947 211.247 297.947 210.1C297.947 208.86 298.12 207.847 298.467 207.06C298.827 206.273 299.347 205.693 300.027 205.32C300.707 204.933 301.547 204.74 302.547 204.74C304.027 204.74 305.14 205.113 305.887 205.86C306.647 206.607 307.027 207.787 307.027 209.4L306.907 210.88H300.627C300.64 211.627 300.793 212.187 301.087 212.56C301.38 212.933 301.887 213.12 302.607 213.12C303.02 213.12 303.473 213.113 303.967 213.1C304.46 213.073 304.947 213.047 305.427 213.02C305.92 212.993 306.34 212.967 306.687 212.94L306.747 214.8C306.413 214.853 305.993 214.913 305.487 214.98C304.98 215.047 304.453 215.1 303.907 215.14C303.373 215.193 302.867 215.22 302.387 215.22ZM300.627 209.18H304.367C304.367 208.273 304.22 207.64 303.927 207.28C303.647 206.92 303.187 206.74 302.547 206.74C302.12 206.74 301.767 206.82 301.487 206.98C301.207 207.14 300.993 207.4 300.847 207.76C300.7 208.12 300.627 208.593 300.627 209.18ZM312.415 215.22C311.975 215.22 311.502 215.193 310.995 215.14C310.502 215.1 310.035 215.047 309.595 214.98C309.169 214.913 308.802 214.847 308.495 214.78L308.575 212.8C308.922 212.84 309.309 212.887 309.735 212.94C310.175 212.993 310.602 213.04 311.015 213.08C311.442 213.107 311.789 213.12 312.055 213.12C312.455 213.12 312.782 213.087 313.035 213.02C313.302 212.953 313.502 212.847 313.635 212.7C313.769 212.54 313.835 212.313 313.835 212.02C313.835 211.793 313.775 211.62 313.655 211.5C313.549 211.38 313.335 211.28 313.015 211.2C312.709 211.107 312.255 211.013 311.655 210.92C310.909 210.813 310.289 210.66 309.795 210.46C309.315 210.26 308.962 209.967 308.735 209.58C308.509 209.18 308.395 208.64 308.395 207.96C308.395 207.133 308.575 206.487 308.935 206.02C309.295 205.553 309.775 205.227 310.375 205.04C310.975 204.84 311.629 204.74 312.335 204.74C312.802 204.74 313.282 204.767 313.775 204.82C314.269 204.86 314.735 204.913 315.175 204.98C315.615 205.047 315.982 205.113 316.275 205.18L316.195 207.2C315.862 207.147 315.475 207.1 315.035 207.06C314.595 207.007 314.155 206.967 313.715 206.94C313.289 206.913 312.929 206.9 312.635 206.9C312.329 206.9 312.055 206.933 311.815 207C311.575 207.053 311.389 207.147 311.255 207.28C311.135 207.413 311.075 207.613 311.075 207.88C311.075 208.067 311.129 208.22 311.235 208.34C311.342 208.46 311.542 208.567 311.835 208.66C312.142 208.74 312.582 208.82 313.155 208.9C313.982 209.02 314.642 209.187 315.135 209.4C315.629 209.613 315.982 209.92 316.195 210.32C316.422 210.72 316.535 211.26 316.535 211.94C316.535 212.74 316.375 213.38 316.055 213.86C315.735 214.34 315.269 214.687 314.655 214.9C314.042 215.113 313.295 215.22 312.415 215.22ZM322.348 215.22C321.241 215.22 320.361 215.033 319.708 214.66C319.068 214.287 318.608 213.72 318.328 212.96C318.048 212.2 317.908 211.247 317.908 210.1C317.908 208.86 318.081 207.847 318.428 207.06C318.788 206.273 319.308 205.693 319.988 205.32C320.668 204.933 321.508 204.74 322.508 204.74C323.988 204.74 325.101 205.113 325.848 205.86C326.608 206.607 326.988 207.787 326.988 209.4L326.868 210.88H320.588C320.601 211.627 320.754 212.187 321.048 212.56C321.341 212.933 321.848 213.12 322.568 213.12C322.981 213.12 323.434 213.113 323.928 213.1C324.421 213.073 324.908 213.047 325.388 213.02C325.881 212.993 326.301 212.967 326.648 212.94L326.708 214.8C326.374 214.853 325.954 214.913 325.448 214.98C324.941 215.047 324.414 215.1 323.868 215.14C323.334 215.193 322.828 215.22 322.348 215.22ZM320.588 209.18H324.328C324.328 208.273 324.181 207.64 323.888 207.28C323.608 206.92 323.148 206.74 322.508 206.74C322.081 206.74 321.728 206.82 321.448 206.98C321.168 207.14 320.954 207.4 320.808 207.76C320.661 208.12 320.588 208.593 320.588 209.18ZM331.376 215.22C330.336 215.22 329.55 214.96 329.016 214.44C328.496 213.907 328.236 213.107 328.236 212.04C328.236 211.293 328.37 210.713 328.636 210.3C328.903 209.873 329.296 209.567 329.816 209.38C330.35 209.18 330.996 209.06 331.756 209.02L334.196 208.8V208.2C334.196 207.72 334.076 207.387 333.836 207.2C333.596 207 333.243 206.9 332.776 206.9C332.403 206.9 331.97 206.913 331.476 206.94C330.996 206.967 330.516 207 330.036 207.04C329.57 207.08 329.163 207.12 328.816 207.16L328.736 205.28C329.083 205.2 329.496 205.12 329.976 205.04C330.47 204.947 330.983 204.873 331.516 204.82C332.05 204.767 332.543 204.74 332.996 204.74C333.85 204.74 334.563 204.847 335.136 205.06C335.71 205.273 336.143 205.627 336.436 206.12C336.73 206.6 336.876 207.253 336.876 208.08V212.66C336.903 212.847 337.003 212.993 337.176 213.1C337.35 213.193 337.55 213.26 337.776 213.3L337.716 215.14C337.503 215.14 337.29 215.14 337.076 215.14C336.876 215.153 336.683 215.153 336.496 215.14C336.31 215.14 336.143 215.127 335.996 215.1C335.69 215.06 335.423 214.98 335.196 214.86C334.983 214.74 334.81 214.613 334.676 214.48C334.463 214.573 334.176 214.68 333.816 214.8C333.456 214.92 333.063 215.02 332.636 215.1C332.223 215.18 331.803 215.22 331.376 215.22ZM332.016 213.24C332.27 213.24 332.536 213.213 332.816 213.16C333.096 213.107 333.356 213.047 333.596 212.98C333.85 212.9 334.05 212.827 334.196 212.76V210.46L332.156 210.64C331.716 210.68 331.396 210.813 331.196 211.04C331.01 211.253 330.916 211.56 330.916 211.96C330.916 212.36 331.003 212.673 331.176 212.9C331.363 213.127 331.643 213.24 332.016 213.24ZM339.225 215V204.96H341.885V206.14C342.112 205.967 342.392 205.787 342.725 205.6C343.058 205.4 343.418 205.22 343.805 205.06C344.205 204.887 344.585 204.773 344.945 204.72V207.3C344.598 207.353 344.232 207.447 343.845 207.58C343.458 207.7 343.092 207.833 342.745 207.98C342.412 208.127 342.125 208.26 341.885 208.38V215H339.225ZM350.317 215.22C349.171 215.22 348.271 215.047 347.617 214.7C346.977 214.34 346.524 213.767 346.257 212.98C346.004 212.193 345.877 211.16 345.877 209.88C345.877 208.613 346.024 207.607 346.317 206.86C346.611 206.1 347.084 205.56 347.737 205.24C348.404 204.907 349.271 204.74 350.337 204.74C350.617 204.74 350.944 204.76 351.317 204.8C351.691 204.84 352.064 204.893 352.437 204.96C352.824 205.013 353.151 205.067 353.417 205.12L353.317 207.26C353.064 207.233 352.777 207.213 352.457 207.2C352.137 207.173 351.824 207.153 351.517 207.14C351.224 207.113 350.984 207.1 350.797 207.1C350.224 207.1 349.771 207.193 349.437 207.38C349.117 207.553 348.891 207.847 348.757 208.26C348.637 208.66 348.577 209.2 348.577 209.88C348.577 210.613 348.637 211.2 348.757 211.64C348.877 212.08 349.091 212.393 349.397 212.58C349.717 212.767 350.184 212.86 350.797 212.86C350.984 212.86 351.231 212.853 351.537 212.84C351.844 212.813 352.157 212.787 352.477 212.76C352.811 212.733 353.104 212.713 353.357 212.7L353.437 214.84C353.171 214.893 352.851 214.947 352.477 215C352.104 215.067 351.724 215.12 351.337 215.16C350.964 215.2 350.624 215.22 350.317 215.22ZM355.163 215V200.86H357.823V205.32C358.049 205.24 358.316 205.16 358.623 205.08C358.943 204.987 359.269 204.907 359.603 204.84C359.949 204.773 360.263 204.74 360.543 204.74C361.249 204.74 361.829 204.833 362.283 205.02C362.749 205.193 363.116 205.48 363.383 205.88C363.649 206.267 363.836 206.78 363.943 207.42C364.063 208.06 364.123 208.833 364.123 209.74V215H361.443V209.94C361.443 209.247 361.403 208.693 361.323 208.28C361.243 207.853 361.089 207.547 360.863 207.36C360.649 207.173 360.316 207.08 359.863 207.08C359.623 207.08 359.376 207.1 359.123 207.14C358.869 207.18 358.623 207.233 358.383 207.3C358.156 207.367 357.969 207.427 357.823 207.48V215H355.163Z" fill="white"/>
<rect x="131" y="99" width="153" height="54" rx="27" fill="#666666"/>
<path d="M171.24 133L174.72 119.34H179.54L183 133H180.24L179.48 130.24H174.7L173.98 133H171.24ZM175.14 128.02H179.08L177.54 121.58H176.7L175.14 128.02ZM184.346 133V122.96H187.006V123.6C187.219 123.467 187.479 123.34 187.786 123.22C188.093 123.087 188.413 122.973 188.746 122.88C189.093 122.787 189.426 122.74 189.746 122.74C190.439 122.74 191.013 122.833 191.466 123.02C191.933 123.193 192.299 123.48 192.566 123.88C192.833 124.28 193.026 124.807 193.146 125.46C193.266 126.1 193.326 126.88 193.326 127.8V133H190.646V127.94C190.646 127.247 190.606 126.693 190.526 126.28C190.446 125.853 190.293 125.547 190.066 125.36C189.839 125.173 189.506 125.08 189.066 125.08C188.826 125.08 188.573 125.107 188.306 125.16C188.053 125.2 187.806 125.26 187.566 125.34C187.339 125.42 187.153 125.5 187.006 125.58V133H184.346ZM198.021 133.22C196.981 133.22 196.194 132.96 195.661 132.44C195.141 131.907 194.881 131.107 194.881 130.04C194.881 129.293 195.014 128.713 195.281 128.3C195.547 127.873 195.941 127.567 196.461 127.38C196.994 127.18 197.641 127.06 198.401 127.02L200.841 126.8V126.2C200.841 125.72 200.721 125.387 200.481 125.2C200.241 125 199.887 124.9 199.421 124.9C199.047 124.9 198.614 124.913 198.121 124.94C197.641 124.967 197.161 125 196.681 125.04C196.214 125.08 195.807 125.12 195.461 125.16L195.381 123.28C195.727 123.2 196.141 123.12 196.621 123.04C197.114 122.947 197.627 122.873 198.161 122.82C198.694 122.767 199.187 122.74 199.641 122.74C200.494 122.74 201.207 122.847 201.781 123.06C202.354 123.273 202.787 123.627 203.081 124.12C203.374 124.6 203.521 125.253 203.521 126.08V130.66C203.547 130.847 203.647 130.993 203.821 131.1C203.994 131.193 204.194 131.26 204.421 131.3L204.361 133.14C204.147 133.14 203.934 133.14 203.721 133.14C203.521 133.153 203.327 133.153 203.141 133.14C202.954 133.14 202.787 133.127 202.641 133.1C202.334 133.06 202.067 132.98 201.841 132.86C201.627 132.74 201.454 132.613 201.321 132.48C201.107 132.573 200.821 132.68 200.461 132.8C200.101 132.92 199.707 133.02 199.281 133.1C198.867 133.18 198.447 133.22 198.021 133.22ZM198.661 131.24C198.914 131.24 199.181 131.213 199.461 131.16C199.741 131.107 200.001 131.047 200.241 130.98C200.494 130.9 200.694 130.827 200.841 130.76V128.46L198.801 128.64C198.361 128.68 198.041 128.813 197.841 129.04C197.654 129.253 197.561 129.56 197.561 129.96C197.561 130.36 197.647 130.673 197.821 130.9C198.007 131.127 198.287 131.24 198.661 131.24ZM205.95 133V118.86H208.61V133H205.95ZM213.349 137.22L214.629 133H212.489L210.109 122.96H212.889L214.669 130.74H215.189L216.969 122.96H219.649L216.189 137.22H213.349ZM224.568 133.22C224.128 133.22 223.654 133.193 223.148 133.14C222.654 133.1 222.188 133.047 221.748 132.98C221.321 132.913 220.954 132.847 220.648 132.78L220.728 130.8C221.074 130.84 221.461 130.887 221.888 130.94C222.328 130.993 222.754 131.04 223.168 131.08C223.594 131.107 223.941 131.12 224.208 131.12C224.608 131.12 224.934 131.087 225.188 131.02C225.454 130.953 225.654 130.847 225.788 130.7C225.921 130.54 225.988 130.313 225.988 130.02C225.988 129.793 225.928 129.62 225.808 129.5C225.701 129.38 225.488 129.28 225.168 129.2C224.861 129.107 224.408 129.013 223.808 128.92C223.061 128.813 222.441 128.66 221.948 128.46C221.468 128.26 221.114 127.967 220.888 127.58C220.661 127.18 220.548 126.64 220.548 125.96C220.548 125.133 220.728 124.487 221.088 124.02C221.448 123.553 221.928 123.227 222.528 123.04C223.128 122.84 223.781 122.74 224.488 122.74C224.954 122.74 225.434 122.767 225.928 122.82C226.421 122.86 226.888 122.913 227.328 122.98C227.768 123.047 228.134 123.113 228.428 123.18L228.348 125.2C228.014 125.147 227.628 125.1 227.188 125.06C226.748 125.007 226.308 124.967 225.868 124.94C225.441 124.913 225.081 124.9 224.788 124.9C224.481 124.9 224.208 124.933 223.968 125C223.728 125.053 223.541 125.147 223.408 125.28C223.288 125.413 223.228 125.613 223.228 125.88C223.228 126.067 223.281 126.22 223.388 126.34C223.494 126.46 223.694 126.567 223.988 126.66C224.294 126.74 224.734 126.82 225.308 126.9C226.134 127.02 226.794 127.187 227.288 127.4C227.781 127.613 228.134 127.92 228.348 128.32C228.574 128.72 228.688 129.26 228.688 129.94C228.688 130.74 228.528 131.38 228.208 131.86C227.888 132.34 227.421 132.687 226.808 132.9C226.194 133.113 225.448 133.22 224.568 133.22ZM230.44 133V122.96H233.1V133H230.44ZM230.44 121.36V119.08H233.12V121.36H230.44ZM238.943 133.22C238.503 133.22 238.029 133.193 237.523 133.14C237.029 133.1 236.563 133.047 236.123 132.98C235.696 132.913 235.329 132.847 235.023 132.78L235.103 130.8C235.449 130.84 235.836 130.887 236.263 130.94C236.703 130.993 237.129 131.04 237.543 131.08C237.969 131.107 238.316 131.12 238.583 131.12C238.983 131.12 239.309 131.087 239.563 131.02C239.829 130.953 240.029 130.847 240.163 130.7C240.296 130.54 240.363 130.313 240.363 130.02C240.363 129.793 240.303 129.62 240.183 129.5C240.076 129.38 239.863 129.28 239.543 129.2C239.236 129.107 238.783 129.013 238.183 128.92C237.436 128.813 236.816 128.66 236.323 128.46C235.843 128.26 235.489 127.967 235.263 127.58C235.036 127.18 234.923 126.64 234.923 125.96C234.923 125.133 235.103 124.487 235.463 124.02C235.823 123.553 236.303 123.227 236.903 123.04C237.503 122.84 238.156 122.74 238.863 122.74C239.329 122.74 239.809 122.767 240.303 122.82C240.796 122.86 241.263 122.913 241.703 122.98C242.143 123.047 242.509 123.113 242.803 123.18L242.723 125.2C242.389 125.147 242.003 125.1 241.563 125.06C241.123 125.007 240.683 124.967 240.243 124.94C239.816 124.913 239.456 124.9 239.163 124.9C238.856 124.9 238.583 124.933 238.343 125C238.103 125.053 237.916 125.147 237.783 125.28C237.663 125.413 237.603 125.613 237.603 125.88C237.603 126.067 237.656 126.22 237.763 126.34C237.869 126.46 238.069 126.567 238.363 126.66C238.669 126.74 239.109 126.82 239.683 126.9C240.509 127.02 241.169 127.187 241.663 127.4C242.156 127.613 242.509 127.92 242.723 128.32C242.949 128.72 243.063 129.26 243.063 129.94C243.063 130.74 242.903 131.38 242.583 131.86C242.263 132.34 241.796 132.687 241.183 132.9C240.569 133.113 239.823 133.22 238.943 133.22Z" fill="white"/>
<path d="M43.38 44L41.46 33.96H44.3L45.6 41.74H45.9L47.52 34.18H50.08L51.76 41.74H52.06L53.36 33.96H56.02L54.16 44H50.14L48.72 37.54L47.3 44H43.38ZM61.5506 44.22C60.444 44.22 59.564 44.0334 58.9106 43.66C58.2706 43.2867 57.8106 42.72 57.5306 41.96C57.2506 41.2 57.1106 40.2467 57.1106 39.1C57.1106 37.86 57.284 36.8467 57.6306 36.06C57.9906 35.2734 58.5106 34.6934 59.1906 34.32C59.8706 33.9334 60.7106 33.74 61.7106 33.74C63.1906 33.74 64.304 34.1134 65.0506 34.86C65.8106 35.6067 66.1906 36.7867 66.1906 38.4L66.0706 39.88H59.7906C59.804 40.6267 59.9573 41.1867 60.2506 41.56C60.544 41.9334 61.0506 42.12 61.7706 42.12C62.184 42.12 62.6373 42.1134 63.1306 42.1C63.624 42.0734 64.1106 42.0467 64.5906 42.02C65.084 41.9934 65.504 41.9667 65.8506 41.94L65.9106 43.8C65.5773 43.8534 65.1573 43.9134 64.6506 43.98C64.144 44.0467 63.6173 44.1 63.0706 44.14C62.5373 44.1934 62.0306 44.22 61.5506 44.22ZM59.7906 38.18H63.5306C63.5306 37.2734 63.384 36.64 63.0906 36.28C62.8106 35.92 62.3506 35.74 61.7106 35.74C61.284 35.74 60.9306 35.82 60.6506 35.98C60.3706 36.14 60.1573 36.4 60.0106 36.76C59.864 37.12 59.7906 37.5934 59.7906 38.18ZM72.0194 44.22C70.9127 44.22 70.0327 44.0334 69.3794 43.66C68.7394 43.2867 68.2794 42.72 67.9994 41.96C67.7194 41.2 67.5794 40.2467 67.5794 39.1C67.5794 37.86 67.7527 36.8467 68.0994 36.06C68.4594 35.2734 68.9794 34.6934 69.6594 34.32C70.3394 33.9334 71.1794 33.74 72.1794 33.74C73.6594 33.74 74.7727 34.1134 75.5194 34.86C76.2794 35.6067 76.6594 36.7867 76.6594 38.4L76.5394 39.88H70.2594C70.2727 40.6267 70.426 41.1867 70.7194 41.56C71.0127 41.9334 71.5194 42.12 72.2394 42.12C72.6527 42.12 73.106 42.1134 73.5994 42.1C74.0927 42.0734 74.5794 42.0467 75.0594 42.02C75.5527 41.9934 75.9727 41.9667 76.3194 41.94L76.3794 43.8C76.046 43.8534 75.626 43.9134 75.1194 43.98C74.6127 44.0467 74.086 44.1 73.5394 44.14C73.006 44.1934 72.4994 44.22 72.0194 44.22ZM70.2594 38.18H73.9994C73.9994 37.2734 73.8527 36.64 73.5594 36.28C73.2794 35.92 72.8194 35.74 72.1794 35.74C71.7527 35.74 71.3994 35.82 71.1194 35.98C70.8394 36.14 70.626 36.4 70.4794 36.76C70.3327 37.12 70.2594 37.5934 70.2594 38.18ZM78.4281 44V29.86H81.0881V37.74L82.2681 37.7L84.3481 33.96H87.1281L84.5881 38.68L87.2681 44H84.4681L82.3081 40.02L81.0881 40.08V44H78.4281ZM92.0872 44.22C91.6472 44.22 91.1739 44.1934 90.6672 44.14C90.1739 44.1 89.7072 44.0467 89.2672 43.98C88.8405 43.9134 88.4739 43.8467 88.1672 43.78L88.2472 41.8C88.5939 41.84 88.9805 41.8867 89.4072 41.94C89.8472 41.9934 90.2739 42.04 90.6872 42.08C91.1139 42.1067 91.4605 42.12 91.7272 42.12C92.1272 42.12 92.4539 42.0867 92.7072 42.02C92.9739 41.9534 93.1739 41.8467 93.3072 41.7C93.4405 41.54 93.5072 41.3134 93.5072 41.02C93.5072 40.7934 93.4472 40.62 93.3272 40.5C93.2205 40.38 93.0072 40.28 92.6872 40.2C92.3805 40.1067 91.9272 40.0134 91.3272 39.92C90.5805 39.8134 89.9605 39.66 89.4672 39.46C88.9872 39.26 88.6339 38.9667 88.4072 38.58C88.1805 38.18 88.0672 37.64 88.0672 36.96C88.0672 36.1334 88.2472 35.4867 88.6072 35.02C88.9672 34.5534 89.4472 34.2267 90.0472 34.04C90.6472 33.84 91.3005 33.74 92.0072 33.74C92.4739 33.74 92.9539 33.7667 93.4472 33.82C93.9405 33.86 94.4072 33.9134 94.8472 33.98C95.2872 34.0467 95.6539 34.1134 95.9472 34.18L95.8672 36.2C95.5339 36.1467 95.1472 36.1 94.7072 36.06C94.2672 36.0067 93.8272 35.9667 93.3872 35.94C92.9605 35.9134 92.6005 35.9 92.3072 35.9C92.0005 35.9 91.7272 35.9334 91.4872 36C91.2472 36.0534 91.0605 36.1467 90.9272 36.28C90.8072 36.4134 90.7472 36.6134 90.7472 36.88C90.7472 37.0667 90.8005 37.22 90.9072 37.34C91.0139 37.46 91.2139 37.5667 91.5072 37.66C91.8139 37.74 92.2539 37.82 92.8272 37.9C93.6539 38.02 94.3139 38.1867 94.8072 38.4C95.3005 38.6134 95.6539 38.92 95.8672 39.32C96.0939 39.72 96.2072 40.26 96.2072 40.94C96.2072 41.74 96.0472 42.38 95.7272 42.86C95.4072 43.34 94.9405 43.6867 94.3272 43.9C93.7139 44.1134 92.9672 44.22 92.0872 44.22Z" fill="white"/>
<path d="M268.66 44V33.76L265.54 35.56L264.62 33.58L269 30.8H271.38V44H268.66Z" fill="white"/>
<path d="M419.18 44V41.84L422.2 38.74C422.773 38.1534 423.267 37.64 423.68 37.2C424.093 36.7467 424.407 36.32 424.62 35.92C424.847 35.52 424.96 35.0934 424.96 34.64C424.96 33.9734 424.773 33.5267 424.4 33.3C424.027 33.06 423.427 32.94 422.6 32.94C422.267 32.94 421.9 32.96 421.5 33C421.1 33.04 420.713 33.0867 420.34 33.14C419.98 33.1934 419.667 33.2467 419.4 33.3L419.26 31.18C419.553 31.1 419.913 31.0134 420.34 30.92C420.78 30.8267 421.253 30.7467 421.76 30.68C422.28 30.6 422.787 30.56 423.28 30.56C424.72 30.56 425.82 30.8667 426.58 31.48C427.34 32.08 427.72 33.0134 427.72 34.28C427.72 34.9734 427.62 35.5867 427.42 36.12C427.233 36.6534 426.933 37.1667 426.52 37.66C426.12 38.14 425.587 38.6667 424.92 39.24L422.28 41.76H427.9V44H419.18Z" fill="white"/>
<path d="M578.34 44.22C577.847 44.22 577.327 44.1934 576.78 44.14C576.247 44.0867 575.733 44.02 575.24 43.94C574.76 43.8467 574.36 43.7667 574.04 43.7L574.16 41.56C574.48 41.6 574.86 41.6467 575.3 41.7C575.753 41.7534 576.213 41.8 576.68 41.84C577.16 41.8667 577.6 41.88 578 41.88C578.76 41.88 579.327 41.74 579.7 41.46C580.073 41.18 580.26 40.7267 580.26 40.1C580.26 39.6734 580.173 39.34 580 39.1C579.84 38.8467 579.6 38.66 579.28 38.54C578.973 38.42 578.613 38.3534 578.2 38.34H575.48V36.14H578.14C578.447 36.14 578.74 36.0734 579.02 35.94C579.313 35.8067 579.547 35.6134 579.72 35.36C579.907 35.1067 580 34.8 580 34.44C580 33.88 579.827 33.4867 579.48 33.26C579.147 33.02 578.6 32.9 577.84 32.9C577.44 32.9 577.02 32.92 576.58 32.96C576.14 33 575.72 33.0467 575.32 33.1C574.92 33.14 574.587 33.1867 574.32 33.24L574.2 31.14C574.493 31.06 574.853 30.98 575.28 30.9C575.707 30.8067 576.16 30.7334 576.64 30.68C577.12 30.6134 577.573 30.58 578 30.58C579.133 30.58 580.047 30.7 580.74 30.94C581.447 31.1667 581.96 31.5467 582.28 32.08C582.6 32.6 582.76 33.2867 582.76 34.14C582.76 34.6067 582.7 35 582.58 35.32C582.473 35.64 582.327 35.9134 582.14 36.14C581.967 36.3667 581.787 36.5534 581.6 36.7C581.413 36.8334 581.24 36.9534 581.08 37.06C581.48 37.2467 581.827 37.4534 582.12 37.68C582.413 37.9067 582.64 38.2067 582.8 38.58C582.96 38.9534 583.04 39.4534 583.04 40.08C583.04 41.08 582.867 41.8867 582.52 42.5C582.173 43.1 581.653 43.54 580.96 43.82C580.267 44.0867 579.393 44.22 578.34 44.22Z" fill="white"/>
<path d="M734.64 44V41.8H728.64V39.8L731.64 30.8H734.72L731.38 39.5H734.64L734.8 36.1L737.36 36.06V39.5H738.58V41.8H737.36V44H734.64Z" fill="white"/>
<path d="M888.64 44.22C888.133 44.22 887.587 44.18 887 44.1C886.413 44.0334 885.847 43.9467 885.3 43.84C884.753 43.7334 884.287 43.64 883.9 43.56L884.14 41.52C884.5 41.5734 884.927 41.64 885.42 41.72C885.913 41.7867 886.42 41.84 886.94 41.88C887.46 41.92 887.933 41.94 888.36 41.94C889.04 41.94 889.58 41.7667 889.98 41.42C890.38 41.06 890.58 40.54 890.58 39.86C890.58 39.3934 890.493 39.0267 890.32 38.76C890.16 38.4934 889.92 38.3067 889.6 38.2C889.293 38.08 888.933 38.02 888.52 38.02C888.2 38.02 887.88 38.0534 887.56 38.12C887.24 38.1734 886.94 38.2467 886.66 38.34C886.38 38.42 886.153 38.5067 885.98 38.6L884.18 38.32L884.5 30.8H892.76V33.22H886.66L886.4 36.16C886.587 36.08 886.82 36 887.1 35.92C887.38 35.8267 887.68 35.7467 888 35.68C888.333 35.6134 888.653 35.58 888.96 35.58C889.88 35.58 890.66 35.7067 891.3 35.96C891.94 36.2134 892.427 36.6334 892.76 37.22C893.107 37.8067 893.28 38.6067 893.28 39.62C893.28 40.6734 893.087 41.54 892.7 42.22C892.327 42.8867 891.793 43.3867 891.1 43.72C890.42 44.0534 889.6 44.22 888.64 44.22Z" fill="white"/>
<path d="M1043.7 44.22C1042.55 44.22 1041.61 43.9534 1040.88 43.42C1040.15 42.8867 1039.6 42.1134 1039.24 41.1C1038.89 40.0867 1038.72 38.86 1038.72 37.42C1038.72 36.14 1038.85 35.0667 1039.1 34.2C1039.37 33.32 1039.73 32.62 1040.2 32.1C1040.68 31.5667 1041.25 31.18 1041.9 30.94C1042.55 30.7 1043.27 30.58 1044.06 30.58C1044.47 30.58 1044.92 30.6067 1045.4 30.66C1045.89 30.7134 1046.37 30.78 1046.84 30.86C1047.31 30.9267 1047.7 30.9934 1048.02 31.06L1047.8 33.12C1047.52 33.0934 1047.17 33.06 1046.74 33.02C1046.33 32.98 1045.89 32.9467 1045.44 32.92C1044.99 32.88 1044.55 32.86 1044.14 32.86C1043.23 32.86 1042.55 33.1467 1042.1 33.72C1041.65 34.28 1041.41 35.0867 1041.38 36.14C1041.51 36.1 1041.68 36.0534 1041.88 36C1042.09 35.9334 1042.32 35.8667 1042.56 35.8C1042.81 35.72 1043.07 35.66 1043.32 35.62C1043.57 35.5667 1043.81 35.54 1044.04 35.54C1045.52 35.54 1046.63 35.8867 1047.36 36.58C1048.11 37.26 1048.48 38.3334 1048.48 39.8C1048.48 40.7867 1048.29 41.6067 1047.9 42.26C1047.51 42.9134 1046.97 43.4067 1046.26 43.74C1045.55 44.06 1044.7 44.22 1043.7 44.22ZM1043.7 41.98C1044.43 41.98 1044.98 41.7934 1045.34 41.42C1045.71 41.0334 1045.9 40.4934 1045.9 39.8C1045.9 39.1067 1045.71 38.6 1045.34 38.28C1044.97 37.9467 1044.44 37.78 1043.76 37.78C1043.48 37.78 1043.19 37.8067 1042.88 37.86C1042.57 37.9134 1042.29 37.9867 1042.02 38.08C1041.75 38.16 1041.53 38.24 1041.36 38.32C1041.37 39.0267 1041.45 39.66 1041.6 40.22C1041.75 40.7667 1041.99 41.2 1042.32 41.52C1042.67 41.8267 1043.13 41.98 1043.7 41.98Z" fill="white"/>
<path d="M1198.38 44.22L1195.74 43.58L1200.06 33.82V33.3H1194.32V30.8H1202.86V33.78L1198.38 44.22Z" fill="white"/>
<path d="M1353.52 44.22C1352.85 44.22 1352.21 44.16 1351.6 44.04C1350.99 43.9334 1350.45 43.7467 1349.98 43.48C1349.51 43.2 1349.15 42.8267 1348.88 42.36C1348.61 41.88 1348.48 41.2867 1348.48 40.58C1348.48 39.9134 1348.56 39.38 1348.72 38.98C1348.89 38.58 1349.13 38.24 1349.44 37.96C1349.75 37.68 1350.11 37.4134 1350.54 37.16C1350.11 36.92 1349.76 36.6667 1349.48 36.4C1349.21 36.1334 1349.01 35.8134 1348.88 35.44C1348.76 35.0534 1348.7 34.5867 1348.7 34.04C1348.7 33.2267 1348.9 32.5667 1349.3 32.06C1349.71 31.5534 1350.28 31.18 1351 30.94C1351.73 30.7 1352.57 30.58 1353.52 30.58C1354.47 30.58 1355.31 30.6934 1356.04 30.92C1356.79 31.1467 1357.37 31.52 1357.78 32.04C1358.21 32.5467 1358.42 33.22 1358.42 34.06C1358.42 34.62 1358.35 35.0934 1358.22 35.48C1358.1 35.8534 1357.9 36.1734 1357.62 36.44C1357.34 36.6934 1356.97 36.94 1356.5 37.18C1356.97 37.3934 1357.35 37.64 1357.66 37.92C1357.98 38.1867 1358.22 38.52 1358.38 38.92C1358.54 39.32 1358.62 39.8334 1358.62 40.46C1358.62 41.18 1358.49 41.7867 1358.22 42.28C1357.95 42.76 1357.58 43.1467 1357.1 43.44C1356.63 43.72 1356.09 43.92 1355.48 44.04C1354.87 44.16 1354.21 44.22 1353.52 44.22ZM1353.52 42.04C1353.99 42.04 1354.39 41.9867 1354.74 41.88C1355.1 41.76 1355.37 41.5667 1355.56 41.3C1355.76 41.02 1355.86 40.64 1355.86 40.16C1355.86 39.7867 1355.79 39.48 1355.64 39.24C1355.51 38.9867 1355.31 38.78 1355.06 38.62C1354.82 38.46 1354.55 38.3334 1354.26 38.24H1352.76C1352.29 38.3867 1351.92 38.62 1351.64 38.94C1351.37 39.2467 1351.24 39.6734 1351.24 40.22C1351.24 40.66 1351.33 41.0134 1351.52 41.28C1351.72 41.5467 1351.99 41.74 1352.34 41.86C1352.69 41.98 1353.08 42.04 1353.52 42.04ZM1352.76 36.22H1354.26C1354.7 36.0467 1355.05 35.82 1355.3 35.54C1355.55 35.26 1355.68 34.8934 1355.68 34.44C1355.68 33.84 1355.49 33.4067 1355.12 33.14C1354.76 32.8734 1354.23 32.74 1353.54 32.74C1352.86 32.74 1352.34 32.8734 1351.98 33.14C1351.62 33.4067 1351.44 33.8334 1351.44 34.42C1351.44 34.8867 1351.55 35.26 1351.78 35.54C1352.01 35.82 1352.33 36.0467 1352.76 36.22Z" fill="white"/>
<path d="M1407.18 44V29.86H1409.84V44H1407.18ZM1414.74 44.22C1413.7 44.22 1412.91 43.96 1412.38 43.44C1411.86 42.9067 1411.6 42.1067 1411.6 41.04C1411.6 40.2934 1411.73 39.7134 1412 39.3C1412.27 38.8734 1412.66 38.5667 1413.18 38.38C1413.71 38.18 1414.36 38.06 1415.12 38.02L1417.56 37.8V37.2C1417.56 36.72 1417.44 36.3867 1417.2 36.2C1416.96 36 1416.61 35.9 1416.14 35.9C1415.77 35.9 1415.33 35.9134 1414.84 35.94C1414.36 35.9667 1413.88 36 1413.4 36.04C1412.93 36.08 1412.53 36.12 1412.18 36.16L1412.1 34.28C1412.45 34.2 1412.86 34.12 1413.34 34.04C1413.83 33.9467 1414.35 33.8734 1414.88 33.82C1415.41 33.7667 1415.91 33.74 1416.36 33.74C1417.21 33.74 1417.93 33.8467 1418.5 34.06C1419.07 34.2734 1419.51 34.6267 1419.8 35.12C1420.09 35.6 1420.24 36.2534 1420.24 37.08V41.66C1420.27 41.8467 1420.37 41.9934 1420.54 42.1C1420.71 42.1934 1420.91 42.26 1421.14 42.3L1421.08 44.14C1420.87 44.14 1420.65 44.14 1420.44 44.14C1420.24 44.1534 1420.05 44.1534 1419.86 44.14C1419.67 44.14 1419.51 44.1267 1419.36 44.1C1419.05 44.06 1418.79 43.98 1418.56 43.86C1418.35 43.74 1418.17 43.6134 1418.04 43.48C1417.83 43.5734 1417.54 43.68 1417.18 43.8C1416.82 43.92 1416.43 44.02 1416 44.1C1415.59 44.18 1415.17 44.22 1414.74 44.22ZM1415.38 42.24C1415.63 42.24 1415.9 42.2134 1416.18 42.16C1416.46 42.1067 1416.72 42.0467 1416.96 41.98C1417.21 41.9 1417.41 41.8267 1417.56 41.76V39.46L1415.52 39.64C1415.08 39.68 1414.76 39.8134 1414.56 40.04C1414.37 40.2534 1414.28 40.56 1414.28 40.96C1414.28 41.36 1414.37 41.6734 1414.54 41.9C1414.73 42.1267 1415.01 42.24 1415.38 42.24ZM1425.71 44.22C1424.84 44.22 1424.17 44.04 1423.69 43.68C1423.22 43.3067 1422.89 42.7467 1422.69 42C1422.5 41.2534 1422.41 40.3134 1422.41 39.18V33.96H1425.07V39.06C1425.07 39.7667 1425.1 40.3267 1425.17 40.74C1425.25 41.1534 1425.4 41.4467 1425.63 41.62C1425.86 41.7934 1426.18 41.88 1426.61 41.88C1427.02 41.88 1427.41 41.8267 1427.77 41.72C1428.13 41.6134 1428.42 41.5067 1428.63 41.4V33.96H1431.29V44H1428.65V43.38C1428.2 43.6334 1427.74 43.84 1427.29 44C1426.85 44.1467 1426.32 44.22 1425.71 44.22ZM1433.49 44V33.96H1436.15V34.6C1436.36 34.4667 1436.62 34.34 1436.93 34.22C1437.23 34.0867 1437.55 33.9734 1437.89 33.88C1438.23 33.7867 1438.57 33.74 1438.89 33.74C1439.58 33.74 1440.15 33.8334 1440.61 34.02C1441.07 34.1934 1441.44 34.48 1441.71 34.88C1441.97 35.28 1442.17 35.8067 1442.29 36.46C1442.41 37.1 1442.47 37.88 1442.47 38.8V44H1439.79V38.94C1439.79 38.2467 1439.75 37.6934 1439.67 37.28C1439.59 36.8534 1439.43 36.5467 1439.21 36.36C1438.98 36.1734 1438.65 36.08 1438.21 36.08C1437.97 36.08 1437.71 36.1067 1437.45 36.16C1437.19 36.2 1436.95 36.26 1436.71 36.34C1436.48 36.42 1436.29 36.5 1436.15 36.58V44H1433.49ZM1448.64 44.22C1447.49 44.22 1446.59 44.0467 1445.94 43.7C1445.3 43.34 1444.85 42.7667 1444.58 41.98C1444.33 41.1934 1444.2 40.16 1444.2 38.88C1444.2 37.6134 1444.35 36.6067 1444.64 35.86C1444.93 35.1 1445.41 34.56 1446.06 34.24C1446.73 33.9067 1447.59 33.74 1448.66 33.74C1448.94 33.74 1449.27 33.76 1449.64 33.8C1450.01 33.84 1450.39 33.8934 1450.76 33.96C1451.15 34.0134 1451.47 34.0667 1451.74 34.12L1451.64 36.26C1451.39 36.2334 1451.1 36.2134 1450.78 36.2C1450.46 36.1734 1450.15 36.1534 1449.84 36.14C1449.55 36.1134 1449.31 36.1 1449.12 36.1C1448.55 36.1 1448.09 36.1934 1447.76 36.38C1447.44 36.5534 1447.21 36.8467 1447.08 37.26C1446.96 37.66 1446.9 38.2 1446.9 38.88C1446.9 39.6134 1446.96 40.2 1447.08 40.64C1447.2 41.08 1447.41 41.3934 1447.72 41.58C1448.04 41.7667 1448.51 41.86 1449.12 41.86C1449.31 41.86 1449.55 41.8534 1449.86 41.84C1450.17 41.8134 1450.48 41.7867 1450.8 41.76C1451.13 41.7334 1451.43 41.7134 1451.68 41.7L1451.76 43.84C1451.49 43.8934 1451.17 43.9467 1450.8 44C1450.43 44.0667 1450.05 44.12 1449.66 44.16C1449.29 44.2 1448.95 44.22 1448.64 44.22ZM1453.49 44V29.86H1456.15V34.32C1456.37 34.24 1456.64 34.16 1456.95 34.08C1457.27 33.9867 1457.59 33.9067 1457.93 33.84C1458.27 33.7734 1458.59 33.74 1458.87 33.74C1459.57 33.74 1460.15 33.8334 1460.61 34.02C1461.07 34.1934 1461.44 34.48 1461.71 34.88C1461.97 35.2667 1462.16 35.78 1462.27 36.42C1462.39 37.06 1462.45 37.8334 1462.45 38.74V44H1459.77V38.94C1459.77 38.2467 1459.73 37.6934 1459.65 37.28C1459.57 36.8534 1459.41 36.5467 1459.19 36.36C1458.97 36.1734 1458.64 36.08 1458.19 36.08C1457.95 36.08 1457.7 36.1 1457.45 36.14C1457.19 36.18 1456.95 36.2334 1456.71 36.3C1456.48 36.3667 1456.29 36.4267 1456.15 36.48V44H1453.49Z" fill="white"/>
</svg>
