<svg width="783" height="869" viewBox="0 0 783 869" fill="none" xmlns="http://www.w3.org/2000/svg">
<rect x="0.5" y="0.5" width="782" height="868" fill="#D9D9D9" stroke="black"/>
<rect x="511.5" y="154.66" width="243" height="274.037" rx="15.5" fill="#AAAAAA" stroke="black"/>
<rect x="511.5" y="447.253" width="243" height="114.086" rx="15.5" fill="#AAAAAA" stroke="black"/>
<rect x="36.5" y="26.5127" width="102.802" height="24.0375" fill="#AAAAAA" stroke="black"/>
<rect x="651.5" y="26.5127" width="102.802" height="24.0375" fill="#AAAAAA" stroke="black"/>
<rect x="651.502" y="97.1172" width="102.802" height="24.0375" fill="#AAAAAA" stroke="black"/>
<rect x="533.5" y="97.1172" width="102.802" height="24.0375" fill="#AAAAAA" stroke="black"/>
<rect x="36.5" y="91.2656" width="193" height="24.358" fill="#AAAAAA" stroke="black"/>
<rect x="36.5" y="170.003" width="36.4419" height="35.5174" rx="7.5" fill="#AAAAAA" stroke="black"/>
<rect x="79.9326" y="174.385" width="72.386" height="6.30347" fill="#AAAAAA" stroke="black"/>
<rect x="37.2488" y="157.586" width="49.1721" height="6.30347" fill="#AAAAAA" stroke="black"/>
<rect x="394.319" y="174.385" width="40.9349" height="6.30347" fill="#AAAAAA" stroke="black"/>
<rect x="79.9326" y="194.834" width="19.2186" height="6.30347" fill="#AAAAAA" stroke="black"/>
<rect x="106.142" y="194.834" width="19.2186" height="6.30347" fill="#AAAAAA" stroke="black"/>
<rect x="132.351" y="194.834" width="19.2186" height="6.30347" fill="#AAAAAA" stroke="black"/>
<rect x="37.2488" y="229.891" width="36.4419" height="35.5174" rx="7.5" fill="#AAAAAA" stroke="black"/>
<rect x="80.6814" y="234.272" width="72.386" height="6.30347" fill="#AAAAAA" stroke="black"/>
<rect x="37.9977" y="217.475" width="49.1721" height="6.30347" fill="#AAAAAA" stroke="black"/>
<rect x="395.067" y="234.272" width="40.9349" height="6.30347" fill="#AAAAAA" stroke="black"/>
<rect x="80.6814" y="254.723" width="19.2186" height="6.30347" fill="#AAAAAA" stroke="black"/>
<rect x="106.891" y="254.723" width="19.2186" height="6.30347" fill="#AAAAAA" stroke="black"/>
<rect x="133.1" y="254.723" width="19.2186" height="6.30347" fill="#AAAAAA" stroke="black"/>
<rect x="36.5" y="289.779" width="36.4419" height="35.5174" rx="7.5" fill="#AAAAAA" stroke="black"/>
<rect x="79.9326" y="294.161" width="72.386" height="6.30347" fill="#AAAAAA" stroke="black"/>
<rect x="37.2488" y="277.363" width="49.1721" height="6.30347" fill="#AAAAAA" stroke="black"/>
<rect x="394.319" y="294.161" width="40.9349" height="6.30347" fill="#AAAAAA" stroke="black"/>
<rect x="327.5" y="340.5" width="109" height="7" fill="#AAAAAA" stroke="black"/>
<rect x="79.9326" y="314.611" width="19.2186" height="6.30347" fill="#AAAAAA" stroke="black"/>
<rect x="106.142" y="314.611" width="19.2186" height="6.30347" fill="#AAAAAA" stroke="black"/>
<rect x="132.351" y="314.611" width="19.2186" height="6.30347" fill="#AAAAAA" stroke="black"/>
<rect x="36.5" y="405.916" width="36.4419" height="35.5174" rx="7.5" fill="#AAAAAA" stroke="black"/>
<rect x="79.9326" y="410.298" width="72.386" height="6.30347" fill="#AAAAAA" stroke="black"/>
<rect x="37.2488" y="393.5" width="49.1721" height="6.30347" fill="#AAAAAA" stroke="black"/>
<rect x="394.319" y="410.298" width="40.9349" height="6.30347" fill="#AAAAAA" stroke="black"/>
<rect x="79.9326" y="430.747" width="19.2186" height="6.30347" fill="#AAAAAA" stroke="black"/>
<rect x="106.142" y="430.747" width="19.2186" height="6.30347" fill="#AAAAAA" stroke="black"/>
<rect x="132.351" y="430.747" width="19.2186" height="6.30347" fill="#AAAAAA" stroke="black"/>
<rect x="37.2488" y="465.804" width="36.4419" height="35.5174" rx="7.5" fill="#AAAAAA" stroke="black"/>
<rect x="80.6814" y="470.187" width="72.386" height="6.30347" fill="#AAAAAA" stroke="black"/>
<rect x="37.9977" y="453.388" width="49.1721" height="6.30347" fill="#AAAAAA" stroke="black"/>
<rect x="395.067" y="470.187" width="40.9349" height="6.30347" fill="#AAAAAA" stroke="black"/>
<rect x="80.6814" y="490.637" width="19.2186" height="6.30347" fill="#AAAAAA" stroke="black"/>
<rect x="106.891" y="490.637" width="19.2186" height="6.30347" fill="#AAAAAA" stroke="black"/>
<rect x="133.1" y="490.637" width="19.2186" height="6.30347" fill="#AAAAAA" stroke="black"/>
<rect x="36.5" y="525.692" width="36.4419" height="35.5174" rx="7.5" fill="#AAAAAA" stroke="black"/>
<rect x="79.9326" y="530.074" width="72.386" height="6.30347" fill="#AAAAAA" stroke="black"/>
<rect x="37.2488" y="513.277" width="49.1721" height="6.30347" fill="#AAAAAA" stroke="black"/>
<rect x="394.319" y="530.074" width="40.9349" height="6.30347" fill="#AAAAAA" stroke="black"/>
<rect x="326.5" y="576.583" width="109" height="7" fill="#AAAAAA" stroke="black"/>
<rect x="79.9326" y="550.524" width="19.2186" height="6.30347" fill="#AAAAAA" stroke="black"/>
<rect x="106.142" y="550.524" width="19.2186" height="6.30347" fill="#AAAAAA" stroke="black"/>
<rect x="132.351" y="550.524" width="19.2186" height="6.30347" fill="#AAAAAA" stroke="black"/>
<rect x="35.5" y="641.999" width="36.4419" height="35.5174" rx="7.5" fill="#AAAAAA" stroke="black"/>
<rect x="78.9326" y="646.382" width="72.386" height="6.30347" fill="#AAAAAA" stroke="black"/>
<rect x="36.2488" y="629.583" width="49.1721" height="6.30347" fill="#AAAAAA" stroke="black"/>
<rect x="393.319" y="646.382" width="40.9349" height="6.30347" fill="#AAAAAA" stroke="black"/>
<rect x="78.9326" y="666.83" width="19.2186" height="6.30347" fill="#AAAAAA" stroke="black"/>
<rect x="105.142" y="666.83" width="19.2186" height="6.30347" fill="#AAAAAA" stroke="black"/>
<rect x="131.351" y="666.83" width="19.2186" height="6.30347" fill="#AAAAAA" stroke="black"/>
<rect x="36.2488" y="701.888" width="36.4419" height="35.5174" rx="7.5" fill="#AAAAAA" stroke="black"/>
<rect x="79.6814" y="706.27" width="72.386" height="6.30347" fill="#AAAAAA" stroke="black"/>
<rect x="36.9977" y="689.471" width="49.1721" height="6.30347" fill="#AAAAAA" stroke="black"/>
<rect x="394.067" y="706.27" width="40.9349" height="6.30347" fill="#AAAAAA" stroke="black"/>
<rect x="79.6814" y="726.72" width="19.2186" height="6.30347" fill="#AAAAAA" stroke="black"/>
<rect x="105.891" y="726.72" width="19.2186" height="6.30347" fill="#AAAAAA" stroke="black"/>
<rect x="132.1" y="726.72" width="19.2186" height="6.30347" fill="#AAAAAA" stroke="black"/>
<rect x="35.5" y="761.775" width="36.4419" height="35.5174" rx="7.5" fill="#AAAAAA" stroke="black"/>
<rect x="78.9326" y="766.157" width="72.386" height="6.30347" fill="#AAAAAA" stroke="black"/>
<rect x="36.2488" y="749.36" width="49.1721" height="6.30347" fill="#AAAAAA" stroke="black"/>
<rect x="393.319" y="766.157" width="40.9349" height="6.30347" fill="#AAAAAA" stroke="black"/>
<rect x="326.5" y="812.836" width="109" height="6" fill="#AAAAAA" stroke="black"/>
<rect x="78.9326" y="786.607" width="19.2186" height="6.30347" fill="#AAAAAA" stroke="black"/>
<rect x="105.142" y="786.607" width="19.2186" height="6.30347" fill="#AAAAAA" stroke="black"/>
<rect x="131.351" y="786.607" width="19.2186" height="6.30347" fill="#AAAAAA" stroke="black"/>
<rect x="217.5" y="26.5127" width="367" height="24.358" fill="#AAAAAA" stroke="black"/>
</svg>
