<svg width="783" height="506" viewBox="0 0 783 506" fill="none" xmlns="http://www.w3.org/2000/svg">
<rect x="0.5" y="0.5" width="782" height="505" fill="#D9D9D9" stroke="black"/>
<rect x="36.5" y="157.5" width="414" height="145" rx="15.5" fill="#AAAAAA" stroke="black"/>
<rect x="36.5" y="408.5" width="414" height="30" rx="7.5" fill="#AAAAAA" stroke="black"/>
<rect x="36.5" y="452.5" width="414" height="30" rx="7.5" fill="#AAAAAA" stroke="black"/>
<rect x="36.5" y="364.5" width="414" height="30" rx="7.5" fill="#AAAAAA" stroke="black"/>
<rect x="36.5" y="320.5" width="414" height="30" rx="7.5" fill="#AAAAAA" stroke="black"/>
<rect x="511.5" y="157.5" width="243" height="320" rx="15.5" fill="#AAAAAA" stroke="black"/>
<rect x="36.5" y="26.5" width="102.802" height="24.6714" fill="#AAAAAA" stroke="black"/>
<rect x="651.5" y="26.5" width="102.802" height="24.6714" fill="#AAAAAA" stroke="black"/>
<rect x="651.5" y="97.5" width="102.802" height="24.6714" fill="#AAAAAA" stroke="black"/>
<rect x="533.5" y="97.5" width="102.802" height="24.6714" fill="#AAAAAA" stroke="black"/>
<rect x="36.5" y="91.5" width="193" height="25" fill="#AAAAAA" stroke="black"/>
<rect x="217.5" y="26.5" width="367" height="25" fill="#AAAAAA" stroke="black"/>
</svg>
